<mxfile host="app.diagrams.net" modified="2024-05-17T14:09:52.815Z" agent="Mozilla/5.0 (Windows NT 10.0; Win64; x64) AppleWebKit/537.36 (KHTML, like Gecko) Chrome/124.0.0.0 Safari/537.36" etag="GgLKg25hTy22-m62l_0S" version="24.4.4" type="device">
  <diagram name="Page-1" id="t4zbFtqcizpWfW9Fg-km">
    <mxGraphModel dx="3372" dy="877" grid="1" gridSize="10" guides="1" tooltips="1" connect="1" arrows="1" fold="1" page="1" pageScale="1" pageWidth="850" pageHeight="1100" math="0" shadow="0">
      <root>
        <mxCell id="0" />
        <mxCell id="1" parent="0" />
        <mxCell id="oH3uRTZyW7BHcShxQoGg-1" value="Начало регистрации" style="rounded=1;absoluteArcSize=1;arcSize=14;whiteSpace=wrap;strokeWidth=2;" vertex="1" parent="1">
          <mxGeometry x="251" y="20" width="166" height="34" as="geometry" />
        </mxCell>
        <mxCell id="oH3uRTZyW7BHcShxQoGg-2" value="Ввод данных" style="rhombus;strokeWidth=2;whiteSpace=wrap;" vertex="1" parent="1">
          <mxGeometry x="263" y="104" width="143" height="143" as="geometry" />
        </mxCell>
        <mxCell id="oH3uRTZyW7BHcShxQoGg-3" value="Проверка корректности данных" style="rhombus;strokeWidth=2;whiteSpace=wrap;" vertex="1" parent="1">
          <mxGeometry x="192" y="297" width="284" height="284" as="geometry" />
        </mxCell>
        <mxCell id="oH3uRTZyW7BHcShxQoGg-4" value="Отказ в регистрации: неверные данные" style="whiteSpace=wrap;strokeWidth=2;" vertex="1" parent="1">
          <mxGeometry x="20" y="745" width="311" height="34" as="geometry" />
        </mxCell>
        <mxCell id="oH3uRTZyW7BHcShxQoGg-5" value="Проверка уникальности" style="rhombus;strokeWidth=2;whiteSpace=wrap;" vertex="1" parent="1">
          <mxGeometry x="381" y="649" width="225" height="225" as="geometry" />
        </mxCell>
        <mxCell id="oH3uRTZyW7BHcShxQoGg-6" value="Отказ: пользователь с такими данными уже существует" style="whiteSpace=wrap;strokeWidth=2;" vertex="1" parent="1">
          <mxGeometry x="61" y="1093" width="432" height="34" as="geometry" />
        </mxCell>
        <mxCell id="oH3uRTZyW7BHcShxQoGg-7" value="Подтверждение по электронной почте" style="rhombus;strokeWidth=2;whiteSpace=wrap;" vertex="1" parent="1">
          <mxGeometry x="542" y="943" width="334" height="334" as="geometry" />
        </mxCell>
        <mxCell id="oH3uRTZyW7BHcShxQoGg-8" value="Отказ: не подтверждено почтой" style="whiteSpace=wrap;strokeWidth=2;" vertex="1" parent="1">
          <mxGeometry x="436" y="1447" width="253" height="34" as="geometry" />
        </mxCell>
        <mxCell id="oH3uRTZyW7BHcShxQoGg-9" value="Создание учетной записи" style="rhombus;strokeWidth=2;whiteSpace=wrap;" vertex="1" parent="1">
          <mxGeometry x="738" y="1345" width="237" height="237" as="geometry" />
        </mxCell>
        <mxCell id="oH3uRTZyW7BHcShxQoGg-10" value="Отправка приветственного сообщения" style="rhombus;strokeWidth=2;whiteSpace=wrap;" vertex="1" parent="1">
          <mxGeometry x="791" y="1633" width="334" height="334" as="geometry" />
        </mxCell>
        <mxCell id="oH3uRTZyW7BHcShxQoGg-11" value="Конец регистрации" style="rounded=1;absoluteArcSize=1;arcSize=14;whiteSpace=wrap;strokeWidth=2;" vertex="1" parent="1">
          <mxGeometry x="778" y="2016" width="158" height="34" as="geometry" />
        </mxCell>
        <mxCell id="oH3uRTZyW7BHcShxQoGg-12" value="" style="curved=1;startArrow=none;endArrow=block;exitX=0.5014589608433735;exitY=0.9852941176470589;entryX=0.49819711538461536;entryY=-0.0034965034965034965;rounded=0;" edge="1" parent="1" source="oH3uRTZyW7BHcShxQoGg-1" target="oH3uRTZyW7BHcShxQoGg-2">
          <mxGeometry relative="1" as="geometry">
            <Array as="points" />
          </mxGeometry>
        </mxCell>
        <mxCell id="oH3uRTZyW7BHcShxQoGg-13" value="" style="curved=1;startArrow=none;endArrow=block;exitX=0.49819711538461536;exitY=0.9987434440559441;entryX=0.500852772887324;entryY=-0.0006327024647887324;rounded=0;" edge="1" parent="1" source="oH3uRTZyW7BHcShxQoGg-2" target="oH3uRTZyW7BHcShxQoGg-3">
          <mxGeometry relative="1" as="geometry">
            <Array as="points" />
          </mxGeometry>
        </mxCell>
        <mxCell id="oH3uRTZyW7BHcShxQoGg-14" value="Некорректные" style="curved=1;startArrow=none;endArrow=block;exitX=0.050138771324272094;exitY=0.9987896126760564;entryX=0.4995101487138264;entryY=-0.004480698529411764;rounded=0;" edge="1" parent="1" source="oH3uRTZyW7BHcShxQoGg-3" target="oH3uRTZyW7BHcShxQoGg-4">
          <mxGeometry relative="1" as="geometry">
            <Array as="points">
              <mxPoint x="175" y="615" />
            </Array>
          </mxGeometry>
        </mxCell>
        <mxCell id="oH3uRTZyW7BHcShxQoGg-15" value="Корректные" style="curved=1;startArrow=none;endArrow=block;exitX=0.9515667744503757;exitY=0.9987896126760564;entryX=0.4983854166666667;entryY=0.0006944444444444445;rounded=0;" edge="1" parent="1" source="oH3uRTZyW7BHcShxQoGg-3" target="oH3uRTZyW7BHcShxQoGg-5">
          <mxGeometry relative="1" as="geometry">
            <Array as="points">
              <mxPoint x="493" y="615" />
            </Array>
          </mxGeometry>
        </mxCell>
        <mxCell id="oH3uRTZyW7BHcShxQoGg-16" value="Не уникальные" style="curved=1;startArrow=none;endArrow=block;exitX=-0.0013541666666666667;exitY=0.8390887466365207;entryX=0.4992359302662037;entryY=-0.002182904411764706;rounded=0;" edge="1" parent="1" source="oH3uRTZyW7BHcShxQoGg-5" target="oH3uRTZyW7BHcShxQoGg-6">
          <mxGeometry relative="1" as="geometry">
            <Array as="points">
              <mxPoint x="277" y="908" />
            </Array>
          </mxGeometry>
        </mxCell>
        <mxCell id="oH3uRTZyW7BHcShxQoGg-17" value="Уникальные" style="curved=1;startArrow=none;endArrow=block;exitX=0.998125;exitY=0.8390887466365207;entryX=0.501806933008982;entryY=-0.0013800523952095809;rounded=0;" edge="1" parent="1" source="oH3uRTZyW7BHcShxQoGg-5" target="oH3uRTZyW7BHcShxQoGg-7">
          <mxGeometry relative="1" as="geometry">
            <Array as="points">
              <mxPoint x="710" y="908" />
            </Array>
          </mxGeometry>
        </mxCell>
        <mxCell id="oH3uRTZyW7BHcShxQoGg-18" value="Не подтвержден" style="curved=1;startArrow=none;endArrow=block;exitX=0.1352914293430885;exitY=0.999438622754491;entryX=0.49842514822134387;entryY=0.006548713235294118;rounded=0;" edge="1" parent="1" source="oH3uRTZyW7BHcShxQoGg-7" target="oH3uRTZyW7BHcShxQoGg-8">
          <mxGeometry relative="1" as="geometry">
            <Array as="points">
              <mxPoint x="562" y="1311" />
            </Array>
          </mxGeometry>
        </mxCell>
        <mxCell id="oH3uRTZyW7BHcShxQoGg-19" value="Подтвержден" style="curved=1;startArrow=none;endArrow=block;exitX=0.8683224366748755;exitY=0.999438622754491;entryX=0.5025547204641351;entryY=0.0013185654008438818;rounded=0;" edge="1" parent="1" source="oH3uRTZyW7BHcShxQoGg-7" target="oH3uRTZyW7BHcShxQoGg-9">
          <mxGeometry relative="1" as="geometry">
            <Array as="points">
              <mxPoint x="857" y="1311" />
            </Array>
          </mxGeometry>
        </mxCell>
        <mxCell id="oH3uRTZyW7BHcShxQoGg-20" value="" style="curved=1;startArrow=none;endArrow=block;exitX=0.8541726787648709;exitY=1.0026700949367089;entryX=0.4999883046407186;entryY=-0.0010993637724550898;rounded=0;" edge="1" parent="1" source="oH3uRTZyW7BHcShxQoGg-9" target="oH3uRTZyW7BHcShxQoGg-10">
          <mxGeometry relative="1" as="geometry">
            <Array as="points">
              <mxPoint x="958" y="1608" />
            </Array>
          </mxGeometry>
        </mxCell>
        <mxCell id="oH3uRTZyW7BHcShxQoGg-21" value="" style="curved=1;startArrow=none;endArrow=block;exitX=0.15093676216339913;exitY=1.0026700949367089;entryX=0.2444834914822257;entryY=0.0057444852941176475;rounded=0;" edge="1" parent="1" source="oH3uRTZyW7BHcShxQoGg-9" target="oH3uRTZyW7BHcShxQoGg-11">
          <mxGeometry relative="1" as="geometry">
            <Array as="points">
              <mxPoint x="756" y="1608" />
              <mxPoint x="756" y="1991" />
            </Array>
          </mxGeometry>
        </mxCell>
        <mxCell id="oH3uRTZyW7BHcShxQoGg-22" value="" style="curved=1;startArrow=none;endArrow=block;exitX=0.4999883046407186;exitY=0.9975907559880239;entryX=0.7568515559861287;entryY=0.0057444852941176475;rounded=0;" edge="1" parent="1" source="oH3uRTZyW7BHcShxQoGg-10" target="oH3uRTZyW7BHcShxQoGg-11">
          <mxGeometry relative="1" as="geometry">
            <Array as="points">
              <mxPoint x="958" y="1991" />
            </Array>
          </mxGeometry>
        </mxCell>
        <UserObject label="" plantUmlData="{&#xa;  &quot;data&quot;: &quot;sequenceDiagram\n    participant User\n    participant System\n\n    User-&gt;&gt;System: Initiate registration\n    activate System\n    System-&gt;&gt;User: Provide username\n    User-&gt;&gt;System: Enter username\n    System--&gt;User: Check username availability\n        alt Username available\n            System-&gt;&gt;User: Provide password\n            User-&gt;&gt;System: Enter password\n            System--&gt;User: Confirm password\n            User-&gt;&gt;System: Confirm password\n            System--&gt;User: Register user\n            System-&gt;&gt;User: Registration successful\n            deactivate System\n        else\n            System-&gt;&gt;User: Username already exists\n            deactivate System\n    else\n        System-&gt;&gt;User: Invalid input\n        deactivate System\n&quot;,&#xa;  &quot;format&quot;: &quot;svg&quot;&#xa;}" id="oH3uRTZyW7BHcShxQoGg-23">
          <mxCell style="shape=image;noLabel=1;verticalAlign=top;aspect=fixed;imageAspect=0;image=data:image/svg+xml,PD94bWwgdmVyc2lvbj0iMS4wIiBlbmNvZGluZz0idXMtYXNjaWkiIHN0YW5kYWxvbmU9Im5vIj8+PHN2ZyB4bWxucz0iaHR0cDovL3d3dy53My5vcmcvMjAwMC9zdmciIHhtbG5zOnhsaW5rPSJodHRwOi8vd3d3LnczLm9yZy8xOTk5L3hsaW5rIiBjb250ZW50U3R5bGVUeXBlPSJ0ZXh0L2NzcyIgaGVpZ2h0PSIxMTJweCIgcHJlc2VydmVBc3BlY3RSYXRpbz0ibm9uZSIgc3R5bGU9IndpZHRoOjE3OHB4O2hlaWdodDoxMTJweDtiYWNrZ3JvdW5kOiMwMDAwMDA7IiB2ZXJzaW9uPSIxLjEiIHZpZXdCb3g9IjAgMCAxNzggMTEyIiB3aWR0aD0iMTc4cHgiIHpvb21BbmRQYW49Im1hZ25pZnkiPjxkZWZzLz48Zz48cmVjdCBmaWxsPSIjMTIyNjBFIiBoZWlnaHQ9IjEiIHN0eWxlPSJzdHJva2U6IzEyMjYwRTtzdHJva2Utd2lkdGg6MS4wOyIgd2lkdGg9IjEiIHg9IjAiIHk9IjAiLz48dGV4dCBmaWxsPSIjMzNGRjAyIiBmb250LWZhbWlseT0ic2Fucy1zZXJpZiIgZm9udC1zaXplPSIxMiIgZm9udC1zdHlsZT0iaXRhbGljIiBmb250LXdlaWdodD0iYm9sZCIgbGVuZ3RoQWRqdXN0PSJzcGFjaW5nIiB0ZXh0TGVuZ3RoPSIxMDciIHg9IjUiIHk9IjE3Ij5QbGFudFVNTCAxLjIwMjQuNDwvdGV4dD48cmVjdCBmaWxsPSIjMzNGRjAyIiBoZWlnaHQ9IjE5Ljk4NDQiIHN0eWxlPSJzdHJva2U6IzMzRkYwMjtzdHJva2Utd2lkdGg6MS4wOyIgd2lkdGg9IjE2NiIgeD0iNSIgeT0iMjUuODQzOCIvPjx0ZXh0IGZpbGw9IiMwMDAwMDAiIGZvbnQtZmFtaWx5PSJzYW5zLXNlcmlmIiBmb250LXNpemU9IjE0IiBmb250LXdlaWdodD0iYm9sZCIgbGVuZ3RoQWRqdXN0PSJzcGFjaW5nIiB0ZXh0TGVuZ3RoPSIxNjQiIHg9IjYiIHk9IjQwLjg0MzgiPltGcm9tIHN0cmluZyAobGluZSAyKSBdPC90ZXh0Pjx0ZXh0IGZpbGw9IiMzM0ZGMDIiIGZvbnQtZmFtaWx5PSJzYW5zLXNlcmlmIiBmb250LXNpemU9IjE0IiBmb250LXdlaWdodD0iYm9sZCIgbGVuZ3RoQWRqdXN0PSJzcGFjaW5nIiB0ZXh0TGVuZ3RoPSI3IiB4PSI1IiB5PSI1OS44MjgxIj4mIzE2MDs8L3RleHQ+PHRleHQgZmlsbD0iIzMzRkYwMiIgZm9udC1mYW1pbHk9InNhbnMtc2VyaWYiIGZvbnQtc2l6ZT0iMTQiIGZvbnQtd2VpZ2h0PSJib2xkIiBsZW5ndGhBZGp1c3Q9InNwYWNpbmciIHRleHRMZW5ndGg9IjY0IiB4PSI1IiB5PSI3NC44MTI1Ij5Ac3RhcnR1bWw8L3RleHQ+PHRleHQgZmlsbD0iIzMzRkYwMiIgZm9udC1mYW1pbHk9InNhbnMtc2VyaWYiIGZvbnQtc2l6ZT0iMTQiIGZvbnQtd2VpZ2h0PSJib2xkIiBsZW5ndGhBZGp1c3Q9InNwYWNpbmciIHRleHQtZGVjb3JhdGlvbj0id2F2eSB1bmRlcmxpbmUiIHRleHRMZW5ndGg9IjEwNiIgeD0iNSIgeT0iODkuNzk2OSI+c2VxdWVuY2VEaWFncmFtPC90ZXh0Pjx0ZXh0IGZpbGw9IiNGRjAwMDAiIGZvbnQtZmFtaWx5PSJzYW5zLXNlcmlmIiBmb250LXNpemU9IjE0IiBmb250LXdlaWdodD0iYm9sZCIgbGVuZ3RoQWRqdXN0PSJzcGFjaW5nIiB0ZXh0TGVuZ3RoPSI5MSIgeD0iMTIiIHk9IjEwNC43ODEzIj5TeW50YXggRXJyb3I/PC90ZXh0PjwhLS1TUkM9W1pQNTFLaUNtMzAzbFVPSy1xMF9xcTBqbXc4cWZtbUU0aEhPRFpYQ2FFUDNWNHBrUHFlSUdnSy1zbDVoOWlqOWRla1plYVY0WU01U21oMVI1czc2QnFVMUxJVnU0TnRlcmdnaUlweTNrUzFYM1VwWDZEYU9aNEJnbWNnMW40bWs4cGhaQkRyRHNaZXRSOEpyUnpsMGlKU1VVODBzZFkzTWo1TllBSFo4ZDlpamtpWm95YV9rdTRlMFRTaTB0M2Nuem1LaXBPTnBRQkg3ZVVodEhNdWtnTnV0dTZSbFF1b2d2eEJNOVB2UndCa2lja18yVW9sSWRHTXF6d3RKcEpRMzlFTDh6ZnAxQnlSSnNUdGJIcUNzWF9PdXUyQTdsV1J3N1FkZzdWTVBVTTgtbm15MFVFQlI5Z2R5ekZtMDBdLS0+PC9nPjwvc3ZnPg==;" vertex="1" parent="1">
            <mxGeometry x="570" y="247" width="178" height="112" as="geometry" />
          </mxCell>
        </UserObject>
        <mxCell id="oH3uRTZyW7BHcShxQoGg-24" value="sequenceDiagram" style="swimlane;fontStyle=1;childLayout=stackLayout;horizontal=1;startSize=26;horizontalStack=0;resizeParent=1;resizeParentMax=0;resizeLast=0;collapsible=1;marginBottom=0;" vertex="1" parent="1">
          <mxGeometry x="-480" y="170" width="160" height="78" as="geometry" />
        </mxCell>
        <mxCell id="oH3uRTZyW7BHcShxQoGg-25" value="    participant User" style="text;strokeColor=none;fillColor=none;align=left;verticalAlign=top;spacingLeft=4;spacingRight=4;overflow=hidden;rotatable=0;points=[[0,0.5],[1,0.5]];portConstraint=eastwest;" vertex="1" parent="oH3uRTZyW7BHcShxQoGg-24">
          <mxGeometry y="26" width="160" height="26" as="geometry" />
        </mxCell>
        <mxCell id="oH3uRTZyW7BHcShxQoGg-26" value="    participant System" style="text;strokeColor=none;fillColor=none;align=left;verticalAlign=top;spacingLeft=4;spacingRight=4;overflow=hidden;rotatable=0;points=[[0,0.5],[1,0.5]];portConstraint=eastwest;" vertex="1" parent="oH3uRTZyW7BHcShxQoGg-24">
          <mxGeometry y="52" width="160" height="26" as="geometry" />
        </mxCell>
        <mxCell id="oH3uRTZyW7BHcShxQoGg-27" value="    User-&gt;&gt;System: Initiate registration" style="swimlane;fontStyle=1;childLayout=stackLayout;horizontal=1;startSize=26;horizontalStack=0;resizeParent=1;resizeParentMax=0;resizeLast=0;collapsible=1;marginBottom=0;" vertex="1" parent="1">
          <mxGeometry x="-280" y="170" width="260" height="494" as="geometry" />
        </mxCell>
        <mxCell id="oH3uRTZyW7BHcShxQoGg-28" value="    activate System" style="text;strokeColor=none;fillColor=none;align=left;verticalAlign=top;spacingLeft=4;spacingRight=4;overflow=hidden;rotatable=0;points=[[0,0.5],[1,0.5]];portConstraint=eastwest;" vertex="1" parent="oH3uRTZyW7BHcShxQoGg-27">
          <mxGeometry y="26" width="260" height="26" as="geometry" />
        </mxCell>
        <mxCell id="oH3uRTZyW7BHcShxQoGg-29" value="    System-&gt;&gt;User: Provide username" style="text;strokeColor=none;fillColor=none;align=left;verticalAlign=top;spacingLeft=4;spacingRight=4;overflow=hidden;rotatable=0;points=[[0,0.5],[1,0.5]];portConstraint=eastwest;" vertex="1" parent="oH3uRTZyW7BHcShxQoGg-27">
          <mxGeometry y="52" width="260" height="26" as="geometry" />
        </mxCell>
        <mxCell id="oH3uRTZyW7BHcShxQoGg-30" value="    User-&gt;&gt;System: Enter username" style="text;strokeColor=none;fillColor=none;align=left;verticalAlign=top;spacingLeft=4;spacingRight=4;overflow=hidden;rotatable=0;points=[[0,0.5],[1,0.5]];portConstraint=eastwest;" vertex="1" parent="oH3uRTZyW7BHcShxQoGg-27">
          <mxGeometry y="78" width="260" height="26" as="geometry" />
        </mxCell>
        <mxCell id="oH3uRTZyW7BHcShxQoGg-31" value="    System--&gt;User: Check username availability" style="text;strokeColor=none;fillColor=none;align=left;verticalAlign=top;spacingLeft=4;spacingRight=4;overflow=hidden;rotatable=0;points=[[0,0.5],[1,0.5]];portConstraint=eastwest;" vertex="1" parent="oH3uRTZyW7BHcShxQoGg-27">
          <mxGeometry y="104" width="260" height="26" as="geometry" />
        </mxCell>
        <mxCell id="oH3uRTZyW7BHcShxQoGg-32" value="        alt Username available" style="text;strokeColor=none;fillColor=none;align=left;verticalAlign=top;spacingLeft=4;spacingRight=4;overflow=hidden;rotatable=0;points=[[0,0.5],[1,0.5]];portConstraint=eastwest;" vertex="1" parent="oH3uRTZyW7BHcShxQoGg-27">
          <mxGeometry y="130" width="260" height="26" as="geometry" />
        </mxCell>
        <mxCell id="oH3uRTZyW7BHcShxQoGg-33" value="            System-&gt;&gt;User: Provide password" style="text;strokeColor=none;fillColor=none;align=left;verticalAlign=top;spacingLeft=4;spacingRight=4;overflow=hidden;rotatable=0;points=[[0,0.5],[1,0.5]];portConstraint=eastwest;" vertex="1" parent="oH3uRTZyW7BHcShxQoGg-27">
          <mxGeometry y="156" width="260" height="26" as="geometry" />
        </mxCell>
        <mxCell id="oH3uRTZyW7BHcShxQoGg-34" value="            User-&gt;&gt;System: Enter password" style="text;strokeColor=none;fillColor=none;align=left;verticalAlign=top;spacingLeft=4;spacingRight=4;overflow=hidden;rotatable=0;points=[[0,0.5],[1,0.5]];portConstraint=eastwest;" vertex="1" parent="oH3uRTZyW7BHcShxQoGg-27">
          <mxGeometry y="182" width="260" height="26" as="geometry" />
        </mxCell>
        <mxCell id="oH3uRTZyW7BHcShxQoGg-35" value="            System--&gt;User: Confirm password" style="text;strokeColor=none;fillColor=none;align=left;verticalAlign=top;spacingLeft=4;spacingRight=4;overflow=hidden;rotatable=0;points=[[0,0.5],[1,0.5]];portConstraint=eastwest;" vertex="1" parent="oH3uRTZyW7BHcShxQoGg-27">
          <mxGeometry y="208" width="260" height="26" as="geometry" />
        </mxCell>
        <mxCell id="oH3uRTZyW7BHcShxQoGg-36" value="            User-&gt;&gt;System: Confirm password" style="text;strokeColor=none;fillColor=none;align=left;verticalAlign=top;spacingLeft=4;spacingRight=4;overflow=hidden;rotatable=0;points=[[0,0.5],[1,0.5]];portConstraint=eastwest;" vertex="1" parent="oH3uRTZyW7BHcShxQoGg-27">
          <mxGeometry y="234" width="260" height="26" as="geometry" />
        </mxCell>
        <mxCell id="oH3uRTZyW7BHcShxQoGg-37" value="            System--&gt;User: Register user" style="text;strokeColor=none;fillColor=none;align=left;verticalAlign=top;spacingLeft=4;spacingRight=4;overflow=hidden;rotatable=0;points=[[0,0.5],[1,0.5]];portConstraint=eastwest;" vertex="1" parent="oH3uRTZyW7BHcShxQoGg-27">
          <mxGeometry y="260" width="260" height="26" as="geometry" />
        </mxCell>
        <mxCell id="oH3uRTZyW7BHcShxQoGg-38" value="            System-&gt;&gt;User: Registration successful" style="text;strokeColor=none;fillColor=none;align=left;verticalAlign=top;spacingLeft=4;spacingRight=4;overflow=hidden;rotatable=0;points=[[0,0.5],[1,0.5]];portConstraint=eastwest;" vertex="1" parent="oH3uRTZyW7BHcShxQoGg-27">
          <mxGeometry y="286" width="260" height="26" as="geometry" />
        </mxCell>
        <mxCell id="oH3uRTZyW7BHcShxQoGg-39" value="            deactivate System" style="text;strokeColor=none;fillColor=none;align=left;verticalAlign=top;spacingLeft=4;spacingRight=4;overflow=hidden;rotatable=0;points=[[0,0.5],[1,0.5]];portConstraint=eastwest;" vertex="1" parent="oH3uRTZyW7BHcShxQoGg-27">
          <mxGeometry y="312" width="260" height="26" as="geometry" />
        </mxCell>
        <mxCell id="oH3uRTZyW7BHcShxQoGg-40" value="        else" style="text;strokeColor=none;fillColor=none;align=left;verticalAlign=top;spacingLeft=4;spacingRight=4;overflow=hidden;rotatable=0;points=[[0,0.5],[1,0.5]];portConstraint=eastwest;" vertex="1" parent="oH3uRTZyW7BHcShxQoGg-27">
          <mxGeometry y="338" width="260" height="26" as="geometry" />
        </mxCell>
        <mxCell id="oH3uRTZyW7BHcShxQoGg-41" value="            System-&gt;&gt;User: Username already exists" style="text;strokeColor=none;fillColor=none;align=left;verticalAlign=top;spacingLeft=4;spacingRight=4;overflow=hidden;rotatable=0;points=[[0,0.5],[1,0.5]];portConstraint=eastwest;" vertex="1" parent="oH3uRTZyW7BHcShxQoGg-27">
          <mxGeometry y="364" width="260" height="26" as="geometry" />
        </mxCell>
        <mxCell id="oH3uRTZyW7BHcShxQoGg-42" value="            deactivate System" style="text;strokeColor=none;fillColor=none;align=left;verticalAlign=top;spacingLeft=4;spacingRight=4;overflow=hidden;rotatable=0;points=[[0,0.5],[1,0.5]];portConstraint=eastwest;" vertex="1" parent="oH3uRTZyW7BHcShxQoGg-27">
          <mxGeometry y="390" width="260" height="26" as="geometry" />
        </mxCell>
        <mxCell id="oH3uRTZyW7BHcShxQoGg-43" value="    else" style="text;strokeColor=none;fillColor=none;align=left;verticalAlign=top;spacingLeft=4;spacingRight=4;overflow=hidden;rotatable=0;points=[[0,0.5],[1,0.5]];portConstraint=eastwest;" vertex="1" parent="oH3uRTZyW7BHcShxQoGg-27">
          <mxGeometry y="416" width="260" height="26" as="geometry" />
        </mxCell>
        <mxCell id="oH3uRTZyW7BHcShxQoGg-44" value="        System-&gt;&gt;User: Invalid input" style="text;strokeColor=none;fillColor=none;align=left;verticalAlign=top;spacingLeft=4;spacingRight=4;overflow=hidden;rotatable=0;points=[[0,0.5],[1,0.5]];portConstraint=eastwest;" vertex="1" parent="oH3uRTZyW7BHcShxQoGg-27">
          <mxGeometry y="442" width="260" height="26" as="geometry" />
        </mxCell>
        <mxCell id="oH3uRTZyW7BHcShxQoGg-45" value="        deactivate System" style="text;strokeColor=none;fillColor=none;align=left;verticalAlign=top;spacingLeft=4;spacingRight=4;overflow=hidden;rotatable=0;points=[[0,0.5],[1,0.5]];portConstraint=eastwest;" vertex="1" parent="oH3uRTZyW7BHcShxQoGg-27">
          <mxGeometry y="468" width="260" height="26" as="geometry" />
        </mxCell>
        <UserObject label="" plantUmlData="{&#xa;  &quot;data&quot;: &quot;@startuml\n\n!theme plain\n\nleft to right direction\nactor Пользователь\nactor \&quot;Служба поддержки\&quot; as Support\nrectangle \&quot;Система регистрации\&quot; {\n  (Регистрация пользователя) as (Reg)\n  (Подтверждение по \\nэлектронной почте) as (ConfirmMail)\n  (Вход в систему) as (Login)\n\n  (Неверный адрес \\nэлектронной почты) as (WrongEmail)\n  (Слабый пароль) as (WeakPassword)\n  (Имя пользователя уже \\nсуществует) as (UsernameExists)\n  (Не удалось отправить \\nписьмо с подтверждением) as (MailFail)\n}\n\nПользователь --&gt; (Reg)\nПользователь --&gt; (ConfirmMail)\n(Reg) .&gt; (WrongEmail) : extends\n(Reg) .&gt; (WeakPassword) : extends\n(Reg) .&gt; (UsernameExists) : extends\n(ConfirmMail) .&gt; (MailFail) : extends\n(ConfirmMail) --&gt; (Login) : include\n\nSupport ---&gt; (MailFail) : предоставляет помощь\nПользователь --&gt; Support : обращается за помощью\nSupport ---&gt; (ConfirmMail) : повторно отправляет \\nписьмо с подтверждением\n\n@enduml\n&quot;,&#xa;  &quot;format&quot;: &quot;svg&quot;&#xa;}" id="oH3uRTZyW7BHcShxQoGg-46">
          <mxCell style="shape=image;noLabel=1;verticalAlign=top;aspect=fixed;imageAspect=0;image=data:image/svg+xml,PD94bWwgdmVyc2lvbj0iMS4wIiBlbmNvZGluZz0idXMtYXNjaWkiIHN0YW5kYWxvbmU9Im5vIj8+PHN2ZyB4bWxucz0iaHR0cDovL3d3dy53My5vcmcvMjAwMC9zdmciIHhtbG5zOnhsaW5rPSJodHRwOi8vd3d3LnczLm9yZy8xOTk5L3hsaW5rIiBjb250ZW50U3R5bGVUeXBlPSJ0ZXh0L2NzcyIgaGVpZ2h0PSI1NDdweCIgcHJlc2VydmVBc3BlY3RSYXRpbz0ibm9uZSIgc3R5bGU9IndpZHRoOjEyNThweDtoZWlnaHQ6NTQ3cHg7YmFja2dyb3VuZDojRkZGRkZGOyIgdmVyc2lvbj0iMS4xIiB2aWV3Qm94PSIwIDAgMTI1OCA1NDciIHdpZHRoPSIxMjU4cHgiIHpvb21BbmRQYW49Im1hZ25pZnkiPjxkZWZzLz48Zz48IS0tY2x1c3RlciA/Pz8/Pz8/ID8/Pz8/Pz8/Pz8/LS0+PGcgaWQ9ImNsdXN0ZXJfJiMxMDU3OyYjMTA4MDsmIzEwODk7JiMxMDkwOyYjMTA3NzsmIzEwODQ7JiMxMDcyOyAmIzEwODg7JiMxMDc3OyYjMTA3NTsmIzEwODA7JiMxMDg5OyYjMTA5MDsmIzEwODg7JiMxMDcyOyYjMTA5NDsmIzEwODA7JiMxMDgwOyI+PHJlY3QgZmlsbD0iI0ZGRkZGRiIgaGVpZ2h0PSI1MjkiIHJ4PSIyLjUiIHJ5PSIyLjUiIHN0eWxlPSJzdHJva2U6IzAwMDAwMDtzdHJva2Utd2lkdGg6MS4wOyIgd2lkdGg9IjUxNSIgeD0iNzM3IiB5PSIxMiIvPjx0ZXh0IGZpbGw9IiMwMDAwMDAiIGZvbnQtZmFtaWx5PSJWZXJkYW5hIiBmb250LXNpemU9IjE0IiBmb250LXdlaWdodD0iYm9sZCIgbGVuZ3RoQWRqdXN0PSJzcGFjaW5nIiB0ZXh0TGVuZ3RoPSIxMzMiIHg9IjkyOCIgeT0iMjcuMjM0NCI+JiMxMDU3OyYjMTA4MDsmIzEwODk7JiMxMDkwOyYjMTA3NzsmIzEwODQ7JiMxMDcyOyAmIzEwODg7JiMxMDc3OyYjMTA3NTsmIzEwODA7JiMxMDg5OyYjMTA5MDsmIzEwODg7JiMxMDcyOyYjMTA5NDsmIzEwODA7JiMxMDgwOzwvdGV4dD48L2c+PGcgaWQ9ImVsZW1fUmVnIj48ZWxsaXBzZSBjeD0iODcwLjQwOSIgY3k9IjMxNy4xODE4IiBmaWxsPSIjRkZGRkZGIiByeD0iMTAxLjQwOSIgcnk9IjIyLjY4MTgiIHN0eWxlPSJzdHJva2U6IzAwMDAwMDtzdHJva2Utd2lkdGg6MS4wOyIvPjx0ZXh0IGZpbGw9IiMwMDAwMDAiIGZvbnQtZmFtaWx5PSJWZXJkYW5hIiBmb250LXNpemU9IjE0IiBsZW5ndGhBZGp1c3Q9InNwYWNpbmciIHRleHRMZW5ndGg9IjE3MCIgeD0iNzg1LjQwOSIgeT0iMzIwLjkyNCI+JiMxMDU2OyYjMTA3NzsmIzEwNzU7JiMxMDgwOyYjMTA4OTsmIzEwOTA7JiMxMDg4OyYjMTA3MjsmIzEwOTQ7JiMxMDgwOyYjMTEwMzsgJiMxMDg3OyYjMTA4NjsmIzEwODM7JiMxMTAwOyYjMTA3OTsmIzEwODY7JiMxMDc0OyYjMTA3MjsmIzEwOTA7JiMxMDc3OyYjMTA4MzsmIzExMDM7PC90ZXh0PjwvZz48ZyBpZD0iZWxlbV9Db25maXJtTWFpbCI+PGVsbGlwc2UgY3g9Ijg3MC4zMzgxIiBjeT0iMzk5LjE5MTEiIGZpbGw9IiNGRkZGRkYiIHJ4PSI5Ni4zMzgxIiByeT0iMjQuMTkxMSIgc3R5bGU9InN0cm9rZTojMDAwMDAwO3N0cm9rZS13aWR0aDoxLjA7Ii8+PHRleHQgZmlsbD0iIzAwMDAwMCIgZm9udC1mYW1pbHk9IlZlcmRhbmEiIGZvbnQtc2l6ZT0iMTQiIGxlbmd0aEFkanVzdD0ic3BhY2luZyIgdGV4dExlbmd0aD0iMTEyIiB4PSI4MTAuODM4MSIgeT0iMzk1LjQ0MTEiPiYjMTA1NTsmIzEwODY7JiMxMDc2OyYjMTA5MDsmIzEwNzQ7JiMxMDc3OyYjMTA4ODsmIzEwNzg7JiMxMDc2OyYjMTA3NzsmIzEwODU7JiMxMDgwOyYjMTA3NzsgJiMxMDg3OyYjMTA4Njs8L3RleHQ+PHRleHQgZmlsbD0iIzAwMDAwMCIgZm9udC1mYW1pbHk9IlZlcmRhbmEiIGZvbnQtc2l6ZT0iMTQiIGxlbmd0aEFkanVzdD0ic3BhY2luZyIgdGV4dExlbmd0aD0iMTIwIiB4PSI4MTAuMzM4MSIgeT0iNDEwLjQyNTUiPiYjMTEwMTsmIzEwODM7JiMxMDc3OyYjMTA4MjsmIzEwOTA7JiMxMDg4OyYjMTA4NjsmIzEwODU7JiMxMDg1OyYjMTA4NjsmIzEwODE7ICYjMTA4NzsmIzEwODY7JiMxMDk1OyYjMTA5MDsmIzEwNzc7PC90ZXh0PjwvZz48ZyBpZD0iZWxlbV9Mb2dpbiI+PGVsbGlwc2UgY3g9IjExNjYuNTQ1NiIgY3k9IjM5OC44MDkxIiBmaWxsPSIjRkZGRkZGIiByeD0iNjkuNTQ1NiIgcnk9IjE2LjMwOTEiIHN0eWxlPSJzdHJva2U6IzAwMDAwMDtzdHJva2Utd2lkdGg6MS4wOyIvPjx0ZXh0IGZpbGw9IiMwMDAwMDAiIGZvbnQtZmFtaWx5PSJWZXJkYW5hIiBmb250LXNpemU9IjE0IiBsZW5ndGhBZGp1c3Q9InNwYWNpbmciIHRleHRMZW5ndGg9Ijk4IiB4PSIxMTE3LjU0NTYiIHk9IjQwMi41NTEzIj4mIzEwNDI7JiMxMDkzOyYjMTA4NjsmIzEwNzY7ICYjMTA3NDsgJiMxMDg5OyYjMTA4MDsmIzEwODk7JiMxMDkwOyYjMTA3NzsmIzEwODQ7JiMxMDkxOzwvdGV4dD48L2c+PGcgaWQ9ImVsZW1fV3JvbmdFbWFpbCI+PGVsbGlwc2UgY3g9Ijg3MC4zMzgxIiBjeT0iNjkuMTkxMSIgZmlsbD0iI0ZGRkZGRiIgcng9Ijk2LjMzODEiIHJ5PSIyNC4xOTExIiBzdHlsZT0ic3Ryb2tlOiMwMDAwMDA7c3Ryb2tlLXdpZHRoOjEuMDsiLz48dGV4dCBmaWxsPSIjMDAwMDAwIiBmb250LWZhbWlseT0iVmVyZGFuYSIgZm9udC1zaXplPSIxNCIgbGVuZ3RoQWRqdXN0PSJzcGFjaW5nIiB0ZXh0TGVuZ3RoPSI5OCIgeD0iODE3LjgzODEiIHk9IjY1LjQ0MTEiPiYjMTA1MzsmIzEwNzc7JiMxMDc0OyYjMTA3NzsmIzEwODg7JiMxMDg1OyYjMTA5OTsmIzEwODE7ICYjMTA3MjsmIzEwNzY7JiMxMDg4OyYjMTA3NzsmIzEwODk7PC90ZXh0Pjx0ZXh0IGZpbGw9IiMwMDAwMDAiIGZvbnQtZmFtaWx5PSJWZXJkYW5hIiBmb250LXNpemU9IjE0IiBsZW5ndGhBZGp1c3Q9InNwYWNpbmciIHRleHRMZW5ndGg9IjEyMCIgeD0iODEwLjMzODEiIHk9IjgwLjQyNTUiPiYjMTEwMTsmIzEwODM7JiMxMDc3OyYjMTA4MjsmIzEwOTA7JiMxMDg4OyYjMTA4NjsmIzEwODU7JiMxMDg1OyYjMTA4NjsmIzEwODE7ICYjMTA4NzsmIzEwODY7JiMxMDk1OyYjMTA5MDsmIzEwOTk7PC90ZXh0PjwvZz48ZyBpZD0iZWxlbV9XZWFrUGFzc3dvcmQiPjxlbGxpcHNlIGN4PSI4NzAuNDk0NyIgY3k9IjE0My44OTg5IiBmaWxsPSIjRkZGRkZGIiByeD0iNjcuNDk0NyIgcnk9IjE1Ljg5ODkiIHN0eWxlPSJzdHJva2U6IzAwMDAwMDtzdHJva2Utd2lkdGg6MS4wOyIvPjx0ZXh0IGZpbGw9IiMwMDAwMDAiIGZvbnQtZmFtaWx5PSJWZXJkYW5hIiBmb250LXNpemU9IjE0IiBsZW5ndGhBZGp1c3Q9InNwYWNpbmciIHRleHRMZW5ndGg9IjkzIiB4PSI4MjMuOTk0NyIgeT0iMTQ3LjY0MTEiPiYjMTA1NzsmIzEwODM7JiMxMDcyOyYjMTA3MzsmIzEwOTk7JiMxMDgxOyAmIzEwODc7JiMxMDcyOyYjMTA4ODsmIzEwODY7JiMxMDgzOyYjMTEwMDs8L3RleHQ+PC9nPjxnIGlkPSJlbGVtX1VzZXJuYW1lRXhpc3RzIj48ZWxsaXBzZSBjeD0iODcwLjQ3MDYiIGN5PSIyMTkuOTk0MSIgZmlsbD0iI0ZGRkZGRiIgcng9IjExMi45NzA2IiByeT0iMjQuOTk0MSIgc3R5bGU9InN0cm9rZTojMDAwMDAwO3N0cm9rZS13aWR0aDoxLjA7Ii8+PHRleHQgZmlsbD0iIzAwMDAwMCIgZm9udC1mYW1pbHk9IlZlcmRhbmEiIGZvbnQtc2l6ZT0iMTQiIGxlbmd0aEFkanVzdD0ic3BhY2luZyIgdGV4dExlbmd0aD0iMTQyIiB4PSI3OTUuOTcwNiIgeT0iMjE2LjI0NDEiPiYjMTA0ODsmIzEwODQ7JiMxMTAzOyAmIzEwODc7JiMxMDg2OyYjMTA4MzsmIzExMDA7JiMxMDc5OyYjMTA4NjsmIzEwNzQ7JiMxMDcyOyYjMTA5MDsmIzEwNzc7JiMxMDgzOyYjMTEwMzsgJiMxMDkxOyYjMTA3ODsmIzEwNzc7PC90ZXh0Pjx0ZXh0IGZpbGw9IiMwMDAwMDAiIGZvbnQtZmFtaWx5PSJWZXJkYW5hIiBmb250LXNpemU9IjE0IiBsZW5ndGhBZGp1c3Q9InNwYWNpbmciIHRleHRMZW5ndGg9IjcwIiB4PSI4MzUuNDcwNiIgeT0iMjMxLjIyODUiPiYjMTA4OTsmIzEwOTE7JiMxMDk3OyYjMTA3NzsmIzEwODk7JiMxMDkwOyYjMTA3NDsmIzEwOTE7JiMxMDc3OyYjMTA5MDs8L3RleHQ+PC9nPjxnIGlkPSJlbGVtX01haWxGYWlsIj48ZWxsaXBzZSBjeD0iODcwLjQzNTciIGN5PSI0OTguODg3MSIgZmlsbD0iI0ZGRkZGRiIgcng9IjExNy40MzU3IiByeT0iMjUuODg3MSIgc3R5bGU9InN0cm9rZTojMDAwMDAwO3N0cm9rZS13aWR0aDoxLjA7Ii8+PHRleHQgZmlsbD0iIzAwMDAwMCIgZm9udC1mYW1pbHk9IlZlcmRhbmEiIGZvbnQtc2l6ZT0iMTQiIGxlbmd0aEFkanVzdD0ic3BhY2luZyIgdGV4dExlbmd0aD0iMTQxIiB4PSI3OTYuNDM1NyIgeT0iNDk1LjEzNzEiPiYjMTA1MzsmIzEwNzc7ICYjMTA5MTsmIzEwNzY7JiMxMDcyOyYjMTA4MzsmIzEwODY7JiMxMDg5OyYjMTEwMDsgJiMxMDg2OyYjMTA5MDsmIzEwODc7JiMxMDg4OyYjMTA3MjsmIzEwNzQ7JiMxMDgwOyYjMTA5MDsmIzExMDA7PC90ZXh0Pjx0ZXh0IGZpbGw9IiMwMDAwMDAiIGZvbnQtZmFtaWx5PSJWZXJkYW5hIiBmb250LXNpemU9IjE0IiBsZW5ndGhBZGp1c3Q9InNwYWNpbmciIHRleHRMZW5ndGg9IjE2MSIgeD0iNzg5LjkzNTciIHk9IjUxMC4xMjE1Ij4mIzEwODc7JiMxMDgwOyYjMTA4OTsmIzExMDA7JiMxMDg0OyYjMTA4NjsgJiMxMDg5OyAmIzEwODc7JiMxMDg2OyYjMTA3NjsmIzEwOTA7JiMxMDc0OyYjMTA3NzsmIzEwODg7JiMxMDc4OyYjMTA3NjsmIzEwNzc7JiMxMDg1OyYjMTA4MDsmIzEwNzc7JiMxMDg0OzwvdGV4dD48L2c+PCEtLWVudGl0eSA/Pz8/Pz8/Pz8/Pz8tLT48ZyBpZD0iZWxlbV8mIzEwNTU7JiMxMDg2OyYjMTA4MzsmIzExMDA7JiMxMDc5OyYjMTA4NjsmIzEwNzQ7JiMxMDcyOyYjMTA5MDsmIzEwNzc7JiMxMDgzOyYjMTEwMDsiPjxlbGxpcHNlIGN4PSI1NCIgY3k9IjMzMSIgZmlsbD0iI0ZGRkZGRiIgcng9IjgiIHJ5PSI4IiBzdHlsZT0ic3Ryb2tlOiMwMDAwMDA7c3Ryb2tlLXdpZHRoOjEuMDsiLz48cGF0aCBkPSJNNTQsMzM5IEw1NCwzNjYgTTQxLDM0NyBMNjcsMzQ3IE01NCwzNjYgTDQxLDM4MSBNNTQsMzY2IEw2NywzODEgIiBmaWxsPSJub25lIiBzdHlsZT0ic3Ryb2tlOiMwMDAwMDA7c3Ryb2tlLXdpZHRoOjEuMDsiLz48dGV4dCBmaWxsPSIjMDAwMDAwIiBmb250LWZhbWlseT0iVmVyZGFuYSIgZm9udC1zaXplPSIxNCIgbGVuZ3RoQWRqdXN0PSJzcGFjaW5nIiB0ZXh0TGVuZ3RoPSI4NiIgeD0iMTEiIHk9IjM5Ni4yMzQ0Ij4mIzEwNTU7JiMxMDg2OyYjMTA4MzsmIzExMDA7JiMxMDc5OyYjMTA4NjsmIzEwNzQ7JiMxMDcyOyYjMTA5MDsmIzEwNzc7JiMxMDgzOyYjMTEwMDs8L3RleHQ+PC9nPjwhLS1lbnRpdHkgU3VwcG9ydC0tPjxnIGlkPSJlbGVtX1N1cHBvcnQiPjxlbGxpcHNlIGN4PSIzNjEuNSIgY3k9IjQyMiIgZmlsbD0iI0ZGRkZGRiIgcng9IjgiIHJ5PSI4IiBzdHlsZT0ic3Ryb2tlOiMwMDAwMDA7c3Ryb2tlLXdpZHRoOjEuMDsiLz48cGF0aCBkPSJNMzYxLjUsNDMwIEwzNjEuNSw0NTcgTTM0OC41LDQzOCBMMzc0LjUsNDM4IE0zNjEuNSw0NTcgTDM0OC41LDQ3MiBNMzYxLjUsNDU3IEwzNzQuNSw0NzIgIiBmaWxsPSJub25lIiBzdHlsZT0ic3Ryb2tlOiMwMDAwMDA7c3Ryb2tlLXdpZHRoOjEuMDsiLz48dGV4dCBmaWxsPSIjMDAwMDAwIiBmb250LWZhbWlseT0iVmVyZGFuYSIgZm9udC1zaXplPSIxNCIgbGVuZ3RoQWRqdXN0PSJzcGFjaW5nIiB0ZXh0TGVuZ3RoPSIxMTMiIHg9IjMwNSIgeT0iNDg3LjIzNDQiPiYjMTA1NzsmIzEwODM7JiMxMDkxOyYjMTA3ODsmIzEwNzM7JiMxMDcyOyAmIzEwODc7JiMxMDg2OyYjMTA3NjsmIzEwNzY7JiMxMDc3OyYjMTA4ODsmIzEwNzg7JiMxMDgyOyYjMTA4MDs8L3RleHQ+PC9nPjwhLS1saW5rID8/Pz8/Pz8/Pz8/PyB0byBSZWctLT48ZyBpZD0ibGlua18mIzEwNTU7JiMxMDg2OyYjMTA4MzsmIzExMDA7JiMxMDc5OyYjMTA4NjsmIzEwNzQ7JiMxMDcyOyYjMTA5MDsmIzEwNzc7JiMxMDgzOyYjMTEwMDtfUmVnIj48cGF0aCBkPSJNOTcuMjcsMzQ2LjQ0IEMxMDYuOTUsMzQzLjg1IDExNy4yNSwzNDEuNDggMTI3LDM0MCBDMzU1LjU1LDMwNS4yMyA2MjIuMDczMywzMDcuNjgyMyA3NjQuOTMzMywzMTIuMzkyMyAiIGZpbGw9Im5vbmUiIGlkPSImIzEwNTU7JiMxMDg2OyYjMTA4MzsmIzExMDA7JiMxMDc5OyYjMTA4NjsmIzEwNzQ7JiMxMDcyOyYjMTA5MDsmIzEwNzc7JiMxMDgzOyYjMTEwMDstdG8tUmVnIiBzdHlsZT0ic3Ryb2tlOiMwMDAwMDA7c3Ryb2tlLXdpZHRoOjEuMDsiLz48cG9seWdvbiBmaWxsPSIjMDAwMDAwIiBwb2ludHM9Ijc3MC45MywzMTIuNTksNzYyLjA2NjcsMzA4LjI5NTYsNzY1LjkzMjcsMzEyLjQyNTIsNzYxLjgwMzEsMzE2LjI5MTMsNzcwLjkzLDMxMi41OSIgc3R5bGU9InN0cm9rZTojMDAwMDAwO3N0cm9rZS13aWR0aDoxLjA7Ii8+PC9nPjwhLS1saW5rID8/Pz8/Pz8/Pz8/PyB0byBDb25maXJtTWFpbC0tPjxnIGlkPSJsaW5rXyYjMTA1NTsmIzEwODY7JiMxMDgzOyYjMTEwMDsmIzEwNzk7JiMxMDg2OyYjMTA3NDsmIzEwNzI7JiMxMDkwOyYjMTA3NzsmIzEwODM7JiMxMTAwO19Db25maXJtTWFpbCI+PHBhdGggZD0iTTk3LjI5LDM2MS43IEMxOTMuNzMsMzY1LjYgNDM3LjMzLDM3NS42OSA2NDEsMzg2IEM2ODUuNTQsMzg4LjI2IDcyOC45NzAxLDM5MC42ODE3IDc3MC40MjAxLDM5My4wOTE3ICIgZmlsbD0ibm9uZSIgaWQ9IiYjMTA1NTsmIzEwODY7JiMxMDgzOyYjMTEwMDsmIzEwNzk7JiMxMDg2OyYjMTA3NDsmIzEwNzI7JiMxMDkwOyYjMTA3NzsmIzEwODM7JiMxMTAwOy10by1Db25maXJtTWFpbCIgc3R5bGU9InN0cm9rZTojMDAwMDAwO3N0cm9rZS13aWR0aDoxLjA7Ii8+PHBvbHlnb24gZmlsbD0iIzAwMDAwMCIgcG9pbnRzPSI3NzYuNDEsMzkzLjQ0LDc2Ny42NTc0LDM4OC45MjQzLDc3MS40MTg0LDM5My4xNDk4LDc2Ny4xOTMsMzk2LjkxMDksNzc2LjQxLDM5My40NCIgc3R5bGU9InN0cm9rZTojMDAwMDAwO3N0cm9rZS13aWR0aDoxLjA7Ii8+PC9nPjwhLS1saW5rIFJlZyB0byBXcm9uZ0VtYWlsLS0+PGcgaWQ9ImxpbmtfUmVnX1dyb25nRW1haWwiPjxwYXRoIGQ9Ik03ODMuODksMzA1LjExIEM3NTMuNDksMjk2LjMxIDcyMi4zNywyODEuMDIgNzA0LDI1NC41IEM2OTEuNjgsMjM2LjcyIDYzOC4wMSwyMDkuNzEgNzI5LDExMCBDNzQyLjk3LDk0LjcgNzU2LjUyOCw4Ni43NDMgNzc2LjM3OCw4MC42MDMgIiBmaWxsPSJub25lIiBpZD0iUmVnLXRvLVdyb25nRW1haWwiIHN0eWxlPSJzdHJva2U6IzAwMDAwMDtzdHJva2Utd2lkdGg6MS4wO3N0cm9rZS1kYXNoYXJyYXk6Ny4wLDcuMDsiLz48cG9seWdvbiBmaWxsPSIjMDAwMDAwIiBwb2ludHM9Ijc4Mi4xMSw3OC44Myw3NzIuMzI5OSw3Ny42NjgyLDc3Ny4zMzMzLDgwLjMwNzUsNzc0LjY5NCw4NS4zMTA5LDc4Mi4xMSw3OC44MyIgc3R5bGU9InN0cm9rZTojMDAwMDAwO3N0cm9rZS13aWR0aDoxLjA7Ii8+PHRleHQgZmlsbD0iIzAwMDAwMCIgZm9udC1mYW1pbHk9IlZlcmRhbmEiIGZvbnQtc2l6ZT0iMTMiIGxlbmd0aEFkanVzdD0ic3BhY2luZyIgdGV4dExlbmd0aD0iNDgiIHg9IjY3MiIgeT0iMjUyLjc4OTEiPmV4dGVuZHM8L3RleHQ+PC9nPjwhLS1saW5rIFJlZyB0byBXZWFrUGFzc3dvcmQtLT48ZyBpZD0ibGlua19SZWdfV2Vha1Bhc3N3b3JkIj48cGF0aCBkPSJNODAzLjgzLDMwMCBDNzQ4LjAxLDI4MS45MSA2ODAuODgsMjQ4Ljg4IDcwNCwxOTguNSBDNzIwLjc1LDE2Mi4wMSA3NTguNTI4NCwxNDkuMzM3NiA3OTYuOTc4NCwxNDQuOTY3NiAiIGZpbGw9Im5vbmUiIGlkPSJSZWctdG8tV2Vha1Bhc3N3b3JkIiBzdHlsZT0ic3Ryb2tlOiMwMDAwMDA7c3Ryb2tlLXdpZHRoOjEuMDtzdHJva2UtZGFzaGFycmF5OjcuMCw3LjA7Ii8+PHBvbHlnb24gZmlsbD0iIzAwMDAwMCIgcG9pbnRzPSI4MDIuOTQsMTQ0LjI5LDc5My41NDU5LDE0MS4zMzE5LDc5Ny45NzIsMTQ0Ljg1NDYsNzk0LjQ0OTMsMTQ5LjI4MDgsODAyLjk0LDE0NC4yOSIgc3R5bGU9InN0cm9rZTojMDAwMDAwO3N0cm9rZS13aWR0aDoxLjA7Ii8+PHRleHQgZmlsbD0iIzAwMDAwMCIgZm9udC1mYW1pbHk9IlZlcmRhbmEiIGZvbnQtc2l6ZT0iMTMiIGxlbmd0aEFkanVzdD0ic3BhY2luZyIgdGV4dExlbmd0aD0iNDgiIHg9IjY3MiIgeT0iMjExLjc4OTEiPmV4dGVuZHM8L3RleHQ+PC9nPjwhLS1saW5rIFJlZyB0byBVc2VybmFtZUV4aXN0cy0tPjxnIGlkPSJsaW5rX1JlZ19Vc2VybmFtZUV4aXN0cyI+PHBhdGggZD0iTTg3MC41LDI5NC4wMSBDODcwLjUsMjc5LjMzIDg3MC41LDI2Ni4zIDg3MC41LDI1MS4yMSAiIGZpbGw9Im5vbmUiIGlkPSJSZWctdG8tVXNlcm5hbWVFeGlzdHMiIHN0eWxlPSJzdHJva2U6IzAwMDAwMDtzdHJva2Utd2lkdGg6MS4wO3N0cm9rZS1kYXNoYXJyYXk6Ny4wLDcuMDsiLz48cG9seWdvbiBmaWxsPSIjMDAwMDAwIiBwb2ludHM9Ijg3MC41LDI0NS4yMSw4NjYuNSwyNTQuMjEsODcwLjUsMjUwLjIxLDg3NC41LDI1NC4yMSw4NzAuNSwyNDUuMjEiIHN0eWxlPSJzdHJva2U6IzAwMDAwMDtzdHJva2Utd2lkdGg6MS4wOyIvPjx0ZXh0IGZpbGw9IiMwMDAwMDAiIGZvbnQtZmFtaWx5PSJWZXJkYW5hIiBmb250LXNpemU9IjEzIiBsZW5ndGhBZGp1c3Q9InNwYWNpbmciIHRleHRMZW5ndGg9IjQ4IiB4PSI4MzYiIHk9IjI3NS41MzkxIj5leHRlbmRzPC90ZXh0PjwvZz48IS0tbGluayBDb25maXJtTWFpbCB0byBNYWlsRmFpbC0tPjxnIGlkPSJsaW5rX0NvbmZpcm1NYWlsX01haWxGYWlsIj48cGF0aCBkPSJNODcwLjUsNDIzLjE3IEM4NzAuNSw0MzguMjIgODcwLjUsNDUxLjU5IDg3MC41LDQ2Ni45OSAiIGZpbGw9Im5vbmUiIGlkPSJDb25maXJtTWFpbC10by1NYWlsRmFpbCIgc3R5bGU9InN0cm9rZTojMDAwMDAwO3N0cm9rZS13aWR0aDoxLjA7c3Ryb2tlLWRhc2hhcnJheTo3LjAsNy4wOyIvPjxwb2x5Z29uIGZpbGw9IiMwMDAwMDAiIHBvaW50cz0iODcwLjUsNDcyLjk5LDg3NC41LDQ2My45OSw4NzAuNSw0NjcuOTksODY2LjUsNDYzLjk5LDg3MC41LDQ3Mi45OSIgc3R5bGU9InN0cm9rZTojMDAwMDAwO3N0cm9rZS13aWR0aDoxLjA7Ii8+PHRleHQgZmlsbD0iIzAwMDAwMCIgZm9udC1mYW1pbHk9IlZlcmRhbmEiIGZvbnQtc2l6ZT0iMTMiIGxlbmd0aEFkanVzdD0ic3BhY2luZyIgdGV4dExlbmd0aD0iNDgiIHg9IjgzNiIgeT0iNDUzLjc4OTEiPmV4dGVuZHM8L3RleHQ+PC9nPjwhLS1saW5rIENvbmZpcm1NYWlsIHRvIExvZ2luLS0+PGcgaWQ9ImxpbmtfQ29uZmlybU1haWxfTG9naW4iPjxwYXRoIGQ9Ik05NjcuMzYsMzk5IEMxMDA5LjU5LDM5OSAxMDUyLjI1LDM5OSAxMDkwLjc4LDM5OSAiIGZpbGw9Im5vbmUiIGlkPSJDb25maXJtTWFpbC10by1Mb2dpbiIgc3R5bGU9InN0cm9rZTojMDAwMDAwO3N0cm9rZS13aWR0aDoxLjA7Ii8+PHBvbHlnb24gZmlsbD0iIzAwMDAwMCIgcG9pbnRzPSIxMDk2Ljc4LDM5OSwxMDg3Ljc4LDM5NSwxMDkxLjc4LDM5OSwxMDg3Ljc4LDQwMywxMDk2Ljc4LDM5OSIgc3R5bGU9InN0cm9rZTojMDAwMDAwO3N0cm9rZS13aWR0aDoxLjA7Ii8+PHRleHQgZmlsbD0iIzAwMDAwMCIgZm9udC1mYW1pbHk9IlZlcmRhbmEiIGZvbnQtc2l6ZT0iMTMiIGxlbmd0aEFkanVzdD0ic3BhY2luZyIgdGV4dExlbmd0aD0iNDciIHg9IjEwMTkiIHk9IjM5Ny4yODkxIj5pbmNsdWRlPC90ZXh0PjwvZz48IS0tbGluayBTdXBwb3J0IHRvIE1haWxGYWlsLS0+PGcgaWQ9ImxpbmtfU3VwcG9ydF9NYWlsRmFpbCI+PHBhdGggZD0iTTQxOC4yNCw0NzkuNzQgQzQzNy4wMyw0ODcuOTggNDU4LjQ2LDQ5NS44NiA0NzksNTAwIEM1NzQuMzcsNTE5LjI0IDY3OS41MzczLDUxNy4wNTU5IDc1OC44MDczLDUxMS4wMTU5ICIgZmlsbD0ibm9uZSIgaWQ9IlN1cHBvcnQtdG8tTWFpbEZhaWwiIHN0eWxlPSJzdHJva2U6IzAwMDAwMDtzdHJva2Utd2lkdGg6MS4wOyIvPjxwb2x5Z29uIGZpbGw9IiMwMDAwMDAiIHBvaW50cz0iNzY0Ljc5LDUxMC41Niw3NTUuNTEyMSw1MDcuMjU1Myw3NTkuODA0NSw1MTAuOTM5OSw3NTYuMTE5OSw1MTUuMjMyMiw3NjQuNzksNTEwLjU2IiBzdHlsZT0ic3Ryb2tlOiMwMDAwMDA7c3Ryb2tlLXdpZHRoOjEuMDsiLz48dGV4dCBmaWxsPSIjMDAwMDAwIiBmb250LWZhbWlseT0iVmVyZGFuYSIgZm9udC1zaXplPSIxMyIgbGVuZ3RoQWRqdXN0PSJzcGFjaW5nIiB0ZXh0TGVuZ3RoPSIxMzgiIHg9IjQ5MSIgeT0iNDk4LjI4OTEiPiYjMTA4NzsmIzEwODg7JiMxMDc3OyYjMTA3NjsmIzEwODY7JiMxMDg5OyYjMTA5MDsmIzEwNzI7JiMxMDc0OyYjMTA4MzsmIzExMDM7JiMxMDc3OyYjMTA5MDsgJiMxMDg3OyYjMTA4NjsmIzEwODQ7JiMxMDg2OyYjMTA5NzsmIzExMDA7PC90ZXh0PjwvZz48IS0tbGluayA/Pz8/Pz8/Pz8/Pz8gdG8gU3VwcG9ydC0tPjxnIGlkPSJsaW5rXyYjMTA1NTsmIzEwODY7JiMxMDgzOyYjMTEwMDsmIzEwNzk7JiMxMDg2OyYjMTA3NDsmIzEwNzI7JiMxMDkwOyYjMTA3NzsmIzEwODM7JiMxMTAwO19TdXBwb3J0Ij48cGF0aCBkPSJNOTcuMzUsMzg2Ljk1IEMxMDYuODQsMzkyLjE4IDExNy4wNSwzOTcuMjEgMTI3LDQwMSBDMTg1LjY5LDQyMy4zOCAyNTAuNzU2LDQzNS44OTIyIDI5OC45NDYsNDQzLjEwMjIgIiBmaWxsPSJub25lIiBpZD0iJiMxMDU1OyYjMTA4NjsmIzEwODM7JiMxMTAwOyYjMTA3OTsmIzEwODY7JiMxMDc0OyYjMTA3MjsmIzEwOTA7JiMxMDc3OyYjMTA4MzsmIzExMDA7LXRvLVN1cHBvcnQiIHN0eWxlPSJzdHJva2U6IzAwMDAwMDtzdHJva2Utd2lkdGg6MS4wOyIvPjxwb2x5Z29uIGZpbGw9IiMwMDAwMDAiIHBvaW50cz0iMzA0Ljg4LDQ0My45OSwyOTYuNTcwOSw0MzguNzAyMywyOTkuOTM1LDQ0My4yNTAyLDI5NS4zODcyLDQ0Ni42MTQyLDMwNC44OCw0NDMuOTkiIHN0eWxlPSJzdHJva2U6IzAwMDAwMDtzdHJva2Utd2lkdGg6MS4wOyIvPjx0ZXh0IGZpbGw9IiMwMDAwMDAiIGZvbnQtZmFtaWx5PSJWZXJkYW5hIiBmb250LXNpemU9IjEzIiBsZW5ndGhBZGp1c3Q9InNwYWNpbmciIHRleHRMZW5ndGg9IjE0NiIgeD0iMTI4IiB5PSIzOTkuMjg5MSI+JiMxMDg2OyYjMTA3MzsmIzEwODg7JiMxMDcyOyYjMTA5NzsmIzEwNzI7JiMxMDc3OyYjMTA5MDsmIzEwODk7JiMxMTAzOyAmIzEwNzk7JiMxMDcyOyAmIzEwODc7JiMxMDg2OyYjMTA4NDsmIzEwODY7JiMxMDk3OyYjMTEwMDsmIzExMDI7PC90ZXh0PjwvZz48IS0tbGluayBTdXBwb3J0IHRvIENvbmZpcm1NYWlsLS0+PGcgaWQ9ImxpbmtfU3VwcG9ydF9Db25maXJtTWFpbCI+PHBhdGggZD0iTTQxOC4yMSw0NDUuMjkgQzUwNS44LDQzNi4zIDY3MC41MTEzLDQxOS40MTIyIDc3NS4wMzEzLDQwOC42OTIyICIgZmlsbD0ibm9uZSIgaWQ9IlN1cHBvcnQtdG8tQ29uZmlybU1haWwiIHN0eWxlPSJzdHJva2U6IzAwMDAwMDtzdHJva2Utd2lkdGg6MS4wOyIvPjxwb2x5Z29uIGZpbGw9IiMwMDAwMDAiIHBvaW50cz0iNzgxLDQwOC4wOCw3NzEuNjM4OSw0MDUuMDE5MSw3NzYuMDI2MSw0MDguNTkwMSw3NzIuNDU1MSw0MTIuOTc3NCw3ODEsNDA4LjA4IiBzdHlsZT0ic3Ryb2tlOiMwMDAwMDA7c3Ryb2tlLXdpZHRoOjEuMDsiLz48dGV4dCBmaWxsPSIjMDAwMDAwIiBmb250LWZhbWlseT0iVmVyZGFuYSIgZm9udC1zaXplPSIxMyIgbGVuZ3RoQWRqdXN0PSJzcGFjaW5nIiB0ZXh0TGVuZ3RoPSIxMzAiIHg9IjQ5MS41IiB5PSI0MDcuMjg5MSI+JiMxMDg3OyYjMTA4NjsmIzEwNzQ7JiMxMDkwOyYjMTA4NjsmIzEwODg7JiMxMDg1OyYjMTA4NjsgJiMxMDg2OyYjMTA5MDsmIzEwODc7JiMxMDg4OyYjMTA3MjsmIzEwNzQ7JiMxMDgzOyYjMTEwMzsmIzEwNzc7JiMxMDkwOzwvdGV4dD48dGV4dCBmaWxsPSIjMDAwMDAwIiBmb250LWZhbWlseT0iVmVyZGFuYSIgZm9udC1zaXplPSIxMyIgbGVuZ3RoQWRqdXN0PSJzcGFjaW5nIiB0ZXh0TGVuZ3RoPSIxNjAiIHg9IjQ4MCIgeT0iNDIxLjIwMzEiPiYjMTA4NzsmIzEwODA7JiMxMDg5OyYjMTEwMDsmIzEwODQ7JiMxMDg2OyAmIzEwODk7ICYjMTA4NzsmIzEwODY7JiMxMDc2OyYjMTA5MDsmIzEwNzQ7JiMxMDc3OyYjMTA4ODsmIzEwNzg7JiMxMDc2OyYjMTA3NzsmIzEwODU7JiMxMDgwOyYjMTA3NzsmIzEwODQ7PC90ZXh0PjwvZz48IS0tU1JDPVtiTEYxUmpEMDRCdGxMb216RE9WcTB0aGUxUEtKSTBZNGs3Mm5hY3JndVFtWnNuTUw0NUFUMjUzS0cyTEVOMTNtMXNjOFFUZXFwWV9DXzE1bFRmc0lmNHFIWVhKUkVzX1VsN2FwLW8weEQ2c1pFcjRHTWdLWVN2M2ZCRFA5czNoQ1QzRENKMkNCT3drMkhYT2RjaHZKSUxDVXEwTVU4bmZvYm1odmhpOVJ6MURWRlZmRHZwSktEMFRlWjVfMTlwWXdlaWNNM2JCel9BWkpZUERDMk5EV012NW5RSEZFN1RhcjRXNGx3OVNfbWxrR0Z6MTRhanlnaFJWZm4tcVdkX2JZanZNVHJRSmF6WkZKZ2hiYXFKejZSNUk5V1pZUVdScm0xRmdMdkt5cW5UY0w4b3lIYy03X3FhTnZldjF3bWVVbkZHWUp6ZkNXWjNwbjV0dWxyOWY2Y2xFX3ROM0Z1bl83aFQzTWI4RC1HeTNOZF82ZlMweVgySXJwX2tfd1ZFaHZOWVFuUlVzdFJ5aDNUejJTVXh1dnNaX25UYkhlNHhuLTZnSmZjcFhmVWxuTklEamljZE9wQjRIRXBadGtZcE9uM1NTNVRwdGRZekdhRGNZUl9VQ21wVEJRZVpEOTdLRkE1N2ZwN2NXeWtaSU5HUTcwMTBxQ204Z3d1ajAwcW92WEx4S2ZUdXM1aGRxckNWZ0h3X1FUS2Zrc0tEVmhVek1peHVVaUpDeWJ3OXN6NUxGcmhaUjdjUjdEVDNjLVJFRVRZM0xKYlo3QkRIdHNmZ01EQUFWTFJtdW1lTXI0SHFzWkw3TTE0QXdscUpZWjJ4WE5rZGM5dlBZY3BDblIzQmt2Wnpqd2hwaUJVajJMczJZdk9kckdXR0lhczljQm5UTWtzRlpwY2dBTDdkT3pUZUdJZk1teTFod280V2p6X3hTS1ZtMDBdLS0+PC9nPjwvc3ZnPg==;" vertex="1" parent="1">
            <mxGeometry x="-700" y="140" width="1258" height="547" as="geometry" />
          </mxCell>
        </UserObject>
        <UserObject label="" plantUmlData="{&#xa;  &quot;data&quot;: &quot;@startuml\n!theme plain\n\nleft to right direction\nactor Пользователь\n\nrectangle Система {\n  usecase \&quot;Инициация регистрации\&quot; as UC1\n  usecase \&quot;Ввод данных\&quot; as UC2\n  usecase \&quot;Проверка данных\&quot; as UC3\n  usecase \&quot;Создание учетной записи\&quot; as UC4\n  usecase \&quot;Отправка письма с подтверждением\&quot; as UC5\n  usecase \&quot;Активация учетной записи\&quot; as UC6\n  usecase \&quot;Ввод неправильных данных\&quot; as UC7\n  usecase \&quot;Использование слабого пароля\&quot; as UC8\n  usecase \&quot;Выбор существующего имени пользователя\&quot; as UC9\n  usecase \&quot;Неудачная отправка письма с подтверждением\&quot; as UC10\n  usecase \&quot;Сброс пароля\&quot; as UCReset\n}\n\nПользователь --&gt; UC1\nПользователь --&gt; UC2\nПользователь --&gt; UC3\nПользователь --&gt; UC7\nПользователь --&gt; UC8\nПользователь --&gt; UC9\nПользователь --&gt; UCReset\nUC1 --&gt; UC4 : \&quot;успешно\&quot;\nUC4 --&gt; UC5 : \&quot;успешно\&quot;\nUC5 --&gt; UC6 : \&quot;успешно\&quot;\nUC2 .&gt; UC7 : \&quot;расширяет\&quot;\nUC2 .&gt; UC8 : \&quot;расширяет\&quot;\nUC2 .&gt; UC9 : \&quot;расширяет\&quot;\nUC5 .&gt; UC10 : \&quot;расширяет\&quot;\n\n@enduml&quot;,&#xa;  &quot;format&quot;: &quot;svg&quot;&#xa;}" id="oH3uRTZyW7BHcShxQoGg-47">
          <mxCell style="shape=image;noLabel=1;verticalAlign=top;aspect=fixed;imageAspect=0;image=data:image/svg+xml,PD94bWwgdmVyc2lvbj0iMS4wIiBlbmNvZGluZz0idXMtYXNjaWkiIHN0YW5kYWxvbmU9Im5vIj8+PHN2ZyB4bWxucz0iaHR0cDovL3d3dy53My5vcmcvMjAwMC9zdmciIHhtbG5zOnhsaW5rPSJodHRwOi8vd3d3LnczLm9yZy8xOTk5L3hsaW5rIiBjb250ZW50U3R5bGVUeXBlPSJ0ZXh0L2NzcyIgaGVpZ2h0PSI1OTBweCIgcHJlc2VydmVBc3BlY3RSYXRpbz0ibm9uZSIgc3R5bGU9IndpZHRoOjE1ODdweDtoZWlnaHQ6NTkwcHg7YmFja2dyb3VuZDojRkZGRkZGOyIgdmVyc2lvbj0iMS4xIiB2aWV3Qm94PSIwIDAgMTU4NyA1OTAiIHdpZHRoPSIxNTg3cHgiIHpvb21BbmRQYW49Im1hZ25pZnkiPjxkZWZzLz48Zz48IS0tY2x1c3RlciA/Pz8/Pz8/LS0+PGcgaWQ9ImNsdXN0ZXJfJiMxMDU3OyYjMTA4MDsmIzEwODk7JiMxMDkwOyYjMTA3NzsmIzEwODQ7JiMxMDcyOyI+PHJlY3QgZmlsbD0iI0ZGRkZGRiIgaGVpZ2h0PSI1NzIiIHJ4PSIyLjUiIHJ5PSIyLjUiIHN0eWxlPSJzdHJva2U6IzAwMDAwMDtzdHJva2Utd2lkdGg6MS4wOyIgd2lkdGg9IjEzNzUiIHg9IjIwNiIgeT0iMTIiLz48dGV4dCBmaWxsPSIjMDAwMDAwIiBmb250LWZhbWlseT0iVmVyZGFuYSIgZm9udC1zaXplPSIxNCIgZm9udC13ZWlnaHQ9ImJvbGQiIGxlbmd0aEFkanVzdD0ic3BhY2luZyIgdGV4dExlbmd0aD0iNDkiIHg9Ijg2OSIgeT0iMjcuMjM0NCI+JiMxMDU3OyYjMTA4MDsmIzEwODk7JiMxMDkwOyYjMTA3NzsmIzEwODQ7JiMxMDcyOzwvdGV4dD48L2c+PGcgaWQ9ImVsZW1fVUMxIj48ZWxsaXBzZSBjeD0iMzY5Ljg4MzkiIGN5PSI0MTEuMDc2OCIgZmlsbD0iI0ZGRkZGRiIgcng9IjkwLjg4MzkiIHJ5PSIyMC41NzY4IiBzdHlsZT0ic3Ryb2tlOiMwMDAwMDA7c3Ryb2tlLXdpZHRoOjEuMDsiLz48dGV4dCBmaWxsPSIjMDAwMDAwIiBmb250LWZhbWlseT0iVmVyZGFuYSIgZm9udC1zaXplPSIxNCIgbGVuZ3RoQWRqdXN0PSJzcGFjaW5nIiB0ZXh0TGVuZ3RoPSIxNDciIHg9IjI5Ni4zODM5IiB5PSI0MTQuODE5Ij4mIzEwNDg7JiMxMDg1OyYjMTA4MDsmIzEwOTQ7JiMxMDgwOyYjMTA3MjsmIzEwOTQ7JiMxMDgwOyYjMTEwMzsgJiMxMDg4OyYjMTA3NzsmIzEwNzU7JiMxMDgwOyYjMTA4OTsmIzEwOTA7JiMxMDg4OyYjMTA3MjsmIzEwOTQ7JiMxMDgwOyYjMTA4MDs8L3RleHQ+PC9nPjxnIGlkPSJlbGVtX1VDMiI+PGVsbGlwc2UgY3g9IjM3MC4xNjg1IiBjeT0iNjAuMTMzNyIgZmlsbD0iI0ZGRkZGRiIgcng9IjYxLjE2ODUiIHJ5PSIxNC42MzM3IiBzdHlsZT0ic3Ryb2tlOiMwMDAwMDA7c3Ryb2tlLXdpZHRoOjEuMDsiLz48dGV4dCBmaWxsPSIjMDAwMDAwIiBmb250LWZhbWlseT0iVmVyZGFuYSIgZm9udC1zaXplPSIxNCIgbGVuZ3RoQWRqdXN0PSJzcGFjaW5nIiB0ZXh0TGVuZ3RoPSI3NyIgeD0iMzMxLjY2ODUiIHk9IjYzLjg3NTkiPiYjMTA0MjsmIzEwNzQ7JiMxMDg2OyYjMTA3NjsgJiMxMDc2OyYjMTA3MjsmIzEwODU7JiMxMDg1OyYjMTA5OTsmIzEwOTM7PC90ZXh0PjwvZz48ZyBpZD0iZWxlbV9VQzMiPjxlbGxpcHNlIGN4PSIzNjkuOTY2MyIgY3k9IjQ4My44OTMzIiBmaWxsPSIjRkZGRkZGIiByeD0iNzIuNDY2MyIgcnk9IjE2Ljg5MzMiIHN0eWxlPSJzdHJva2U6IzAwMDAwMDtzdHJva2Utd2lkdGg6MS4wOyIvPjx0ZXh0IGZpbGw9IiMwMDAwMDAiIGZvbnQtZmFtaWx5PSJWZXJkYW5hIiBmb250LXNpemU9IjE0IiBsZW5ndGhBZGp1c3Q9InNwYWNpbmciIHRleHRMZW5ndGg9IjEwNSIgeD0iMzE3LjQ2NjMiIHk9IjQ4Ny42MzU1Ij4mIzEwNTU7JiMxMDg4OyYjMTA4NjsmIzEwNzQ7JiMxMDc3OyYjMTA4ODsmIzEwODI7JiMxMDcyOyAmIzEwNzY7JiMxMDcyOyYjMTA4NTsmIzEwODU7JiMxMDk5OyYjMTA5Mzs8L3RleHQ+PC9nPjxnIGlkPSJlbGVtX1VDNCI+PGVsbGlwc2UgY3g9IjcyNS4yNjMzIiBjeT0iNDEwLjg1MjciIGZpbGw9IiNGRkZGRkYiIHJ4PSI5Ny4yNjMzIiByeT0iMjEuODUyNyIgc3R5bGU9InN0cm9rZTojMDAwMDAwO3N0cm9rZS13aWR0aDoxLjA7Ii8+PHRleHQgZmlsbD0iIzAwMDAwMCIgZm9udC1mYW1pbHk9IlZlcmRhbmEiIGZvbnQtc2l6ZT0iMTQiIGxlbmd0aEFkanVzdD0ic3BhY2luZyIgdGV4dExlbmd0aD0iMTYxIiB4PSI2NDQuNzYzMyIgeT0iNDE0LjU5NDgiPiYjMTA1NzsmIzEwODY7JiMxMDc5OyYjMTA3NjsmIzEwNzI7JiMxMDg1OyYjMTA4MDsmIzEwNzc7ICYjMTA5MTsmIzEwOTU7JiMxMDc3OyYjMTA5MDsmIzEwODU7JiMxMDg2OyYjMTA4MTsgJiMxMDc5OyYjMTA3MjsmIzEwODc7JiMxMDgwOyYjMTA4OTsmIzEwODA7PC90ZXh0PjwvZz48ZyBpZD0iZWxlbV9VQzUiPjxlbGxpcHNlIGN4PSIxMDkzLjMwMzYiIGN5PSI0MTAuNzYwNyIgZmlsbD0iI0ZGRkZGRiIgcng9IjEyNi44MDM2IiByeT0iMjcuNzYwNyIgc3R5bGU9InN0cm9rZTojMDAwMDAwO3N0cm9rZS13aWR0aDoxLjA7Ii8+PHRleHQgZmlsbD0iIzAwMDAwMCIgZm9udC1mYW1pbHk9IlZlcmRhbmEiIGZvbnQtc2l6ZT0iMTQiIGxlbmd0aEFkanVzdD0ic3BhY2luZyIgdGV4dExlbmd0aD0iMjI0IiB4PSI5ODEuMzAzNiIgeT0iNDE0LjUwMjkiPiYjMTA1NDsmIzEwOTA7JiMxMDg3OyYjMTA4ODsmIzEwNzI7JiMxMDc0OyYjMTA4MjsmIzEwNzI7ICYjMTA4NzsmIzEwODA7JiMxMDg5OyYjMTEwMDsmIzEwODQ7JiMxMDcyOyAmIzEwODk7ICYjMTA4NzsmIzEwODY7JiMxMDc2OyYjMTA5MDsmIzEwNzQ7JiMxMDc3OyYjMTA4ODsmIzEwNzg7JiMxMDc2OyYjMTA3NzsmIzEwODU7JiMxMDgwOyYjMTA3NzsmIzEwODQ7PC90ZXh0PjwvZz48ZyBpZD0iZWxlbV9VQzYiPjxlbGxpcHNlIGN4PSIxNDY0LjQ4NSIgY3k9IjQxMC45OTciIGZpbGw9IiNGRkZGRkYiIHJ4PSIxMDAuNDg1IiByeT0iMjIuNDk3IiBzdHlsZT0ic3Ryb2tlOiMwMDAwMDA7c3Ryb2tlLXdpZHRoOjEuMDsiLz48dGV4dCBmaWxsPSIjMDAwMDAwIiBmb250LWZhbWlseT0iVmVyZGFuYSIgZm9udC1zaXplPSIxNCIgbGVuZ3RoQWRqdXN0PSJzcGFjaW5nIiB0ZXh0TGVuZ3RoPSIxNjgiIHg9IjEzODAuNDg1IiB5PSI0MTQuNzM5MiI+JiMxMDQwOyYjMTA4MjsmIzEwOTA7JiMxMDgwOyYjMTA3NDsmIzEwNzI7JiMxMDk0OyYjMTA4MDsmIzExMDM7ICYjMTA5MTsmIzEwOTU7JiMxMDc3OyYjMTA5MDsmIzEwODU7JiMxMDg2OyYjMTA4MTsgJiMxMDc5OyYjMTA3MjsmIzEwODc7JiMxMDgwOyYjMTA4OTsmIzEwODA7PC90ZXh0PjwvZz48ZyBpZD0iZWxlbV9VQzciPjxlbGxpcHNlIGN4PSIzNjkuOTQ2OCIgY3k9IjE0Ny4wODk0IiBmaWxsPSIjRkZGRkZGIiByeD0iMTAwLjk0NjgiIHJ5PSIyMi41ODk0IiBzdHlsZT0ic3Ryb2tlOiMwMDAwMDA7c3Ryb2tlLXdpZHRoOjEuMDsiLz48dGV4dCBmaWxsPSIjMDAwMDAwIiBmb250LWZhbWlseT0iVmVyZGFuYSIgZm9udC1zaXplPSIxNCIgbGVuZ3RoQWRqdXN0PSJzcGFjaW5nIiB0ZXh0TGVuZ3RoPSIxNjkiIHg9IjI4NS40NDY4IiB5PSIxNTAuODMxNSI+JiMxMDQyOyYjMTA3NDsmIzEwODY7JiMxMDc2OyAmIzEwODU7JiMxMDc3OyYjMTA4NzsmIzEwODg7JiMxMDcyOyYjMTA3NDsmIzEwODA7JiMxMDgzOyYjMTEwMDsmIzEwODU7JiMxMDk5OyYjMTA5MzsgJiMxMDc2OyYjMTA3MjsmIzEwODU7JiMxMDg1OyYjMTA5OTsmIzEwOTM7PC90ZXh0PjwvZz48ZyBpZD0iZWxlbV9VQzgiPjxlbGxpcHNlIGN4PSIzNjkuOTUzNCIgY3k9IjIyOS44OTA3IiBmaWxsPSIjRkZGRkZGIiByeD0iMTE0Ljk1MzQiIHJ5PSIyNS4zOTA3IiBzdHlsZT0ic3Ryb2tlOiMwMDAwMDA7c3Ryb2tlLXdpZHRoOjEuMDsiLz48dGV4dCBmaWxsPSIjMDAwMDAwIiBmb250LWZhbWlseT0iVmVyZGFuYSIgZm9udC1zaXplPSIxNCIgbGVuZ3RoQWRqdXN0PSJzcGFjaW5nIiB0ZXh0TGVuZ3RoPSIxOTkiIHg9IjI3MC40NTM0IiB5PSIyMzMuNjMyOSI+JiMxMDQ4OyYjMTA4OTsmIzEwODc7JiMxMDg2OyYjMTA4MzsmIzExMDA7JiMxMDc5OyYjMTA4NjsmIzEwNzQ7JiMxMDcyOyYjMTA4NTsmIzEwODA7JiMxMDc3OyAmIzEwODk7JiMxMDgzOyYjMTA3MjsmIzEwNzM7JiMxMDg2OyYjMTA3NTsmIzEwODY7ICYjMTA4NzsmIzEwNzI7JiMxMDg4OyYjMTA4NjsmIzEwODM7JiMxMTAzOzwvdGV4dD48L2c+PGcgaWQ9ImVsZW1fVUM5Ij48ZWxsaXBzZSBjeD0iMzY5LjkyNTIiIGN5PSIzMjIuOTg1IiBmaWxsPSIjRkZGRkZGIiByeD0iMTQ3LjkyNTIiIHJ5PSIzMS45ODUiIHN0eWxlPSJzdHJva2U6IzAwMDAwMDtzdHJva2Utd2lkdGg6MS4wOyIvPjx0ZXh0IGZpbGw9IiMwMDAwMDAiIGZvbnQtZmFtaWx5PSJWZXJkYW5hIiBmb250LXNpemU9IjE0IiBsZW5ndGhBZGp1c3Q9InNwYWNpbmciIHRleHRMZW5ndGg9IjI2OCIgeD0iMjM1LjkyNTIiIHk9IjMyNi43MjcyIj4mIzEwNDI7JiMxMDk5OyYjMTA3MzsmIzEwODY7JiMxMDg4OyAmIzEwODk7JiMxMDkxOyYjMTA5NzsmIzEwNzc7JiMxMDg5OyYjMTA5MDsmIzEwNzQ7JiMxMDkxOyYjMTEwMjsmIzEwOTc7JiMxMDc3OyYjMTA3NTsmIzEwODY7ICYjMTA4MDsmIzEwODQ7JiMxMDc3OyYjMTA4NTsmIzEwODA7ICYjMTA4NzsmIzEwODY7JiMxMDgzOyYjMTEwMDsmIzEwNzk7JiMxMDg2OyYjMTA3NDsmIzEwNzI7JiMxMDkwOyYjMTA3NzsmIzEwODM7JiMxMTAzOzwvdGV4dD48L2c+PGcgaWQ9ImVsZW1fVUMxMCI+PGVsbGlwc2UgY3g9IjEwOTMuNTE5MyIgY3k9IjI5OS4wMDM5IiBmaWxsPSIjRkZGRkZGIiByeD0iMTYwLjUxOTMiIHJ5PSIzNC41MDM5IiBzdHlsZT0ic3Ryb2tlOiMwMDAwMDA7c3Ryb2tlLXdpZHRoOjEuMDsiLz48dGV4dCBmaWxsPSIjMDAwMDAwIiBmb250LWZhbWlseT0iVmVyZGFuYSIgZm9udC1zaXplPSIxNCIgbGVuZ3RoQWRqdXN0PSJzcGFjaW5nIiB0ZXh0TGVuZ3RoPSIyOTQiIHg9Ijk0Ni41MTkzIiB5PSIzMDIuNzQ2Ij4mIzEwNTM7JiMxMDc3OyYjMTA5MTsmIzEwNzY7JiMxMDcyOyYjMTA5NTsmIzEwODU7JiMxMDcyOyYjMTEwMzsgJiMxMDg2OyYjMTA5MDsmIzEwODc7JiMxMDg4OyYjMTA3MjsmIzEwNzQ7JiMxMDgyOyYjMTA3MjsgJiMxMDg3OyYjMTA4MDsmIzEwODk7JiMxMTAwOyYjMTA4NDsmIzEwNzI7ICYjMTA4OTsgJiMxMDg3OyYjMTA4NjsmIzEwNzY7JiMxMDkwOyYjMTA3NDsmIzEwNzc7JiMxMDg4OyYjMTA3ODsmIzEwNzY7JiMxMDc3OyYjMTA4NTsmIzEwODA7JiMxMDc3OyYjMTA4NDs8L3RleHQ+PC9nPjxnIGlkPSJlbGVtX1VDUmVzZXQiPjxlbGxpcHNlIGN4PSIzNjkuNzgyNyIgY3k9IjU1MS43NTY1IiBmaWxsPSIjRkZGRkZGIiByeD0iNjQuMjgyNyIgcnk9IjE1LjI1NjUiIHN0eWxlPSJzdHJva2U6IzAwMDAwMDtzdHJva2Utd2lkdGg6MS4wOyIvPjx0ZXh0IGZpbGw9IiMwMDAwMDAiIGZvbnQtZmFtaWx5PSJWZXJkYW5hIiBmb250LXNpemU9IjE0IiBsZW5ndGhBZGp1c3Q9InNwYWNpbmciIHRleHRMZW5ndGg9Ijg1IiB4PSIzMjcuMjgyNyIgeT0iNTU1LjQ5ODciPiYjMTA1NzsmIzEwNzM7JiMxMDg4OyYjMTA4NjsmIzEwODk7ICYjMTA4NzsmIzEwNzI7JiMxMDg4OyYjMTA4NjsmIzEwODM7JiMxMTAzOzwvdGV4dD48L2c+PCEtLWVudGl0eSA/Pz8/Pz8/Pz8/Pz8tLT48ZyBpZD0iZWxlbV8mIzEwNTU7JiMxMDg2OyYjMTA4MzsmIzExMDA7JiMxMDc5OyYjMTA4NjsmIzEwNzQ7JiMxMDcyOyYjMTA5MDsmIzEwNzc7JiMxMDgzOyYjMTEwMDsiPjxlbGxpcHNlIGN4PSI1NCIgY3k9IjI5NCIgZmlsbD0iI0ZGRkZGRiIgcng9IjgiIHJ5PSI4IiBzdHlsZT0ic3Ryb2tlOiMwMDAwMDA7c3Ryb2tlLXdpZHRoOjEuMDsiLz48cGF0aCBkPSJNNTQsMzAyIEw1NCwzMjkgTTQxLDMxMCBMNjcsMzEwIE01NCwzMjkgTDQxLDM0NCBNNTQsMzI5IEw2NywzNDQgIiBmaWxsPSJub25lIiBzdHlsZT0ic3Ryb2tlOiMwMDAwMDA7c3Ryb2tlLXdpZHRoOjEuMDsiLz48dGV4dCBmaWxsPSIjMDAwMDAwIiBmb250LWZhbWlseT0iVmVyZGFuYSIgZm9udC1zaXplPSIxNCIgbGVuZ3RoQWRqdXN0PSJzcGFjaW5nIiB0ZXh0TGVuZ3RoPSI4NiIgeD0iMTEiIHk9IjM1OS4yMzQ0Ij4mIzEwNTU7JiMxMDg2OyYjMTA4MzsmIzExMDA7JiMxMDc5OyYjMTA4NjsmIzEwNzQ7JiMxMDcyOyYjMTA5MDsmIzEwNzc7JiMxMDgzOyYjMTEwMDs8L3RleHQ+PC9nPjwhLS1saW5rID8/Pz8/Pz8/Pz8/PyB0byBVQzEtLT48ZyBpZD0ibGlua18mIzEwNTU7JiMxMDg2OyYjMTA4MzsmIzExMDA7JiMxMDc5OyYjMTA4NjsmIzEwNzQ7JiMxMDcyOyYjMTA5MDsmIzEwNzc7JiMxMDgzOyYjMTEwMDtfVUMxIj48cGF0aCBkPSJNOTcuMTgsMzM4Ljc3IEMxMjUuNDYsMzQ5LjAxIDE2My42NywzNjIuMjMgMTk4LDM3MiBDMjMxLjgzLDM4MS42MiAyNjQuMDc1OSwzODkuMjMwNCAyOTUuNzE1OSwzOTYuMDgwNCAiIGZpbGw9Im5vbmUiIGlkPSImIzEwNTU7JiMxMDg2OyYjMTA4MzsmIzExMDA7JiMxMDc5OyYjMTA4NjsmIzEwNzQ7JiMxMDcyOyYjMTA5MDsmIzEwNzc7JiMxMDgzOyYjMTEwMDstdG8tVUMxIiBzdHlsZT0ic3Ryb2tlOiMwMDAwMDA7c3Ryb2tlLXdpZHRoOjEuMDsiLz48cG9seWdvbiBmaWxsPSIjMDAwMDAwIiBwb2ludHM9IjMwMS41OCwzOTcuMzUsMjkzLjYzMDIsMzkxLjUzNjIsMjk2LjY5MzIsMzk2LjI5MiwyOTEuOTM3NCwzOTkuMzU1MSwzMDEuNTgsMzk3LjM1IiBzdHlsZT0ic3Ryb2tlOiMwMDAwMDA7c3Ryb2tlLXdpZHRoOjEuMDsiLz48L2c+PCEtLWxpbmsgPz8/Pz8/Pz8/Pz8/IHRvIFVDMi0tPjxnIGlkPSJsaW5rXyYjMTA1NTsmIzEwODY7JiMxMDgzOyYjMTEwMDsmIzEwNzk7JiMxMDg2OyYjMTA3NDsmIzEwNzI7JiMxMDkwOyYjMTA3NzsmIzEwODM7JiMxMTAwO19VQzIiPjxwYXRoIGQ9Ik02MC4zLDI4NC45MiBDNjguMDIsMjQzLjA0IDg2LjE4LDE3Ni4yMyAxMjcsMTM1IEMxNzUuNTksODUuOTMgMjQ5LjYzNDUsNjkuNDgyMiAzMDQuMjU0NSw2My42MDIyICIgZmlsbD0ibm9uZSIgaWQ9IiYjMTA1NTsmIzEwODY7JiMxMDgzOyYjMTEwMDsmIzEwNzk7JiMxMDg2OyYjMTA3NDsmIzEwNzI7JiMxMDkwOyYjMTA3NzsmIzEwODM7JiMxMTAwOy10by1VQzIiIHN0eWxlPSJzdHJva2U6IzAwMDAwMDtzdHJva2Utd2lkdGg6MS4wOyIvPjxwb2x5Z29uIGZpbGw9IiMwMDAwMDAiIHBvaW50cz0iMzEwLjIyLDYyLjk2LDMwMC44NDM2LDU5Ljk0NjMsMzA1LjI0ODcsNjMuNDk1MiwzMDEuNjk5OCw2Ny45MDAzLDMxMC4yMiw2Mi45NiIgc3R5bGU9InN0cm9rZTojMDAwMDAwO3N0cm9rZS13aWR0aDoxLjA7Ii8+PC9nPjwhLS1saW5rID8/Pz8/Pz8/Pz8/PyB0byBVQzMtLT48ZyBpZD0ibGlua18mIzEwNTU7JiMxMDg2OyYjMTA4MzsmIzExMDA7JiMxMDc5OyYjMTA4NjsmIzEwNzQ7JiMxMDcyOyYjMTA5MDsmIzEwNzc7JiMxMDgzOyYjMTEwMDtfVUMzIj48cGF0aCBkPSJNODcuODQsMzYxLjE2IEMxMTQuNiwzODkuNzcgMTU0LjkxLDQyNy41NCAxOTgsNDQ5IEMyMzAuMDEsNDY0Ljk0IDI2Mi45MDIzLDQ3Mi43NTc0IDI5NS40NjIzLDQ3Ny40ODc0ICIgZmlsbD0ibm9uZSIgaWQ9IiYjMTA1NTsmIzEwODY7JiMxMDgzOyYjMTEwMDsmIzEwNzk7JiMxMDg2OyYjMTA3NDsmIzEwNzI7JiMxMDkwOyYjMTA3NzsmIzEwODM7JiMxMTAwOy10by1VQzMiIHN0eWxlPSJzdHJva2U6IzAwMDAwMDtzdHJva2Utd2lkdGg6MS4wOyIvPjxwb2x5Z29uIGZpbGw9IiMwMDAwMDAiIHBvaW50cz0iMzAxLjQsNDc4LjM1LDI5My4wNjg1LDQ3My4wOTc3LDI5Ni40NTE5LDQ3Ny42MzEyLDI5MS45MTg0LDQ4MS4wMTQ2LDMwMS40LDQ3OC4zNSIgc3R5bGU9InN0cm9rZTojMDAwMDAwO3N0cm9rZS13aWR0aDoxLjA7Ii8+PC9nPjwhLS1saW5rID8/Pz8/Pz8/Pz8/PyB0byBVQzctLT48ZyBpZD0ibGlua18mIzEwNTU7JiMxMDg2OyYjMTA4MzsmIzExMDA7JiMxMDc5OyYjMTA4NjsmIzEwNzQ7JiMxMDcyOyYjMTA5MDsmIzEwNzc7JiMxMDgzOyYjMTEwMDtfVUM3Ij48cGF0aCBkPSJNNjIuNTQsMjg0Ljc0IEM3MS41NiwyNDkuODggOTAuMywxOTkuOTcgMTI3LDE3NCBDMTcwLjY1LDE0My4xMSAyMjQuMjUwOSwxMzYuMDQzOCAyNzMuMzgwOSwxMzYuOTEzOCAiIGZpbGw9Im5vbmUiIGlkPSImIzEwNTU7JiMxMDg2OyYjMTA4MzsmIzExMDA7JiMxMDc5OyYjMTA4NjsmIzEwNzQ7JiMxMDcyOyYjMTA5MDsmIzEwNzc7JiMxMDgzOyYjMTEwMDstdG8tVUM3IiBzdHlsZT0ic3Ryb2tlOiMwMDAwMDA7c3Ryb2tlLXdpZHRoOjEuMDsiLz48cG9seWdvbiBmaWxsPSIjMDAwMDAwIiBwb2ludHM9IjI3OS4zOCwxMzcuMDIsMjcwLjQ1MjIsMTMyLjg2MTMsMjc0LjM4MDgsMTM2LjkzMTUsMjcwLjMxMDYsMTQwLjg2LDI3OS4zOCwxMzcuMDIiIHN0eWxlPSJzdHJva2U6IzAwMDAwMDtzdHJva2Utd2lkdGg6MS4wOyIvPjwvZz48IS0tbGluayA/Pz8/Pz8/Pz8/Pz8gdG8gVUM4LS0+PGcgaWQ9ImxpbmtfJiMxMDU1OyYjMTA4NjsmIzEwODM7JiMxMTAwOyYjMTA3OTsmIzEwODY7JiMxMDc0OyYjMTA3MjsmIzEwOTA7JiMxMDc3OyYjMTA4MzsmIzExMDA7X1VDOCI+PHBhdGggZD0iTTk3LjIxLDMwNy41OSBDMTA2Ljk4LDMwNC4wNyAxMTcuMzQsMzAwLjM4IDEyNywyOTcgQzE1OC40NCwyODYuMDEgMTY2LjA0LDI4Mi40IDE5OCwyNzMgQzIyNy45NSwyNjQuMTkgMjU1LjM2NDIsMjU3LjAwNTQgMjg0LjUwNDIsMjQ5LjgyNTQgIiBmaWxsPSJub25lIiBpZD0iJiMxMDU1OyYjMTA4NjsmIzEwODM7JiMxMTAwOyYjMTA3OTsmIzEwODY7JiMxMDc0OyYjMTA3MjsmIzEwOTA7JiMxMDc3OyYjMTA4MzsmIzExMDA7LXRvLVVDOCIgc3R5bGU9InN0cm9rZTojMDAwMDAwO3N0cm9rZS13aWR0aDoxLjA7Ii8+PHBvbHlnb24gZmlsbD0iIzAwMDAwMCIgcG9pbnRzPSIyOTAuMzMsMjQ4LjM5LDI4MC42MzQ0LDI0Ni42NTkzLDI4NS40NzUyLDI0OS41ODYyLDI4Mi41NDgzLDI1NC40MjcsMjkwLjMzLDI0OC4zOSIgc3R5bGU9InN0cm9rZTojMDAwMDAwO3N0cm9rZS13aWR0aDoxLjA7Ii8+PC9nPjwhLS1saW5rID8/Pz8/Pz8/Pz8/PyB0byBVQzktLT48ZyBpZD0ibGlua18mIzEwNTU7JiMxMDg2OyYjMTA4MzsmIzExMDA7JiMxMDc5OyYjMTA4NjsmIzEwNzQ7JiMxMDcyOyYjMTA5MDsmIzEwNzc7JiMxMDgzOyYjMTEwMDtfVUM5Ij48cGF0aCBkPSJNOTcuMDIsMzIzIEMxMjkuMzYsMzIzIDE3MC4xLDMyMyAyMTUuNzQsMzIzICIgZmlsbD0ibm9uZSIgaWQ9IiYjMTA1NTsmIzEwODY7JiMxMDgzOyYjMTEwMDsmIzEwNzk7JiMxMDg2OyYjMTA3NDsmIzEwNzI7JiMxMDkwOyYjMTA3NzsmIzEwODM7JiMxMTAwOy10by1VQzkiIHN0eWxlPSJzdHJva2U6IzAwMDAwMDtzdHJva2Utd2lkdGg6MS4wOyIvPjxwb2x5Z29uIGZpbGw9IiMwMDAwMDAiIHBvaW50cz0iMjIxLjc0LDMyMywyMTIuNzQsMzE5LDIxNi43NCwzMjMsMjEyLjc0LDMyNywyMjEuNzQsMzIzIiBzdHlsZT0ic3Ryb2tlOiMwMDAwMDA7c3Ryb2tlLXdpZHRoOjEuMDsiLz48L2c+PCEtLWxpbmsgPz8/Pz8/Pz8/Pz8/IHRvIFVDUmVzZXQtLT48ZyBpZD0ibGlua18mIzEwNTU7JiMxMDg2OyYjMTA4MzsmIzExMDA7JiMxMDc5OyYjMTA4NjsmIzEwNzQ7JiMxMDcyOyYjMTA5MDsmIzEwNzc7JiMxMDgzOyYjMTEwMDtfVUNSZXNldCI+PHBhdGggZD0iTTcwLjEsMzYxLjI2IEM5MC45Myw0MDguMTIgMTMzLjM5LDQ4NS4yOCAxOTgsNTE4IEMyMzEuODksNTM1LjE2IDI2Ny42OTYxLDU0Mi45Mjc1IDMwMS40NTYxLDU0Ny4xMzc1ICIgZmlsbD0ibm9uZSIgaWQ9IiYjMTA1NTsmIzEwODY7JiMxMDgzOyYjMTEwMDsmIzEwNzk7JiMxMDg2OyYjMTA3NDsmIzEwNzI7JiMxMDkwOyYjMTA3NzsmIzEwODM7JiMxMTAwOy10by1VQ1Jlc2V0IiBzdHlsZT0ic3Ryb2tlOiMwMDAwMDA7c3Ryb2tlLXdpZHRoOjEuMDsiLz48cG9seWdvbiBmaWxsPSIjMDAwMDAwIiBwb2ludHM9IjMwNy40MSw1NDcuODgsMjk4Ljk3NDIsNTQyLjc5NywzMDIuNDQ4NCw1NDcuMjYxMywyOTcuOTg0Miw1NTAuNzM1NSwzMDcuNDEsNTQ3Ljg4IiBzdHlsZT0ic3Ryb2tlOiMwMDAwMDA7c3Ryb2tlLXdpZHRoOjEuMDsiLz48L2c+PCEtLWxpbmsgVUMxIHRvIFVDNC0tPjxnIGlkPSJsaW5rX1VDMV9VQzQiPjxwYXRoIGQ9Ik00NjEuMTIsNDExIEM1MTIuMDUsNDExIDU2OS43NCw0MTEgNjIxLjczLDQxMSAiIGZpbGw9Im5vbmUiIGlkPSJVQzEtdG8tVUM0IiBzdHlsZT0ic3Ryb2tlOiMwMDAwMDA7c3Ryb2tlLXdpZHRoOjEuMDsiLz48cG9seWdvbiBmaWxsPSIjMDAwMDAwIiBwb2ludHM9IjYyNy43Myw0MTEsNjE4LjczLDQwNyw2MjIuNzMsNDExLDYxOC43Myw0MTUsNjI3LjczLDQxMSIgc3R5bGU9InN0cm9rZTojMDAwMDAwO3N0cm9rZS13aWR0aDoxLjA7Ii8+PHRleHQgZmlsbD0iIzAwMDAwMCIgZm9udC1mYW1pbHk9IlZlcmRhbmEiIGZvbnQtc2l6ZT0iMTMiIGxlbmd0aEFkanVzdD0ic3BhY2luZyIgdGV4dExlbmd0aD0iNDgiIHg9IjU0OSIgeT0iNDA5LjI4OTEiPiYjMTA5MTsmIzEwODk7JiMxMDg3OyYjMTA3NzsmIzEwOTY7JiMxMDg1OyYjMTA4Njs8L3RleHQ+PC9nPjwhLS1saW5rIFVDNCB0byBVQzUtLT48ZyBpZD0ibGlua19VQzRfVUM1Ij48cGF0aCBkPSJNODIzLjE0LDQxMSBDODY2Ljk4LDQxMSA5MTMuNCw0MTEgOTYwLjMsNDExICIgZmlsbD0ibm9uZSIgaWQ9IlVDNC10by1VQzUiIHN0eWxlPSJzdHJva2U6IzAwMDAwMDtzdHJva2Utd2lkdGg6MS4wOyIvPjxwb2x5Z29uIGZpbGw9IiMwMDAwMDAiIHBvaW50cz0iOTY2LjMsNDExLDk1Ny4zLDQwNyw5NjEuMyw0MTEsOTU3LjMsNDE1LDk2Ni4zLDQxMSIgc3R5bGU9InN0cm9rZTojMDAwMDAwO3N0cm9rZS13aWR0aDoxLjA7Ii8+PHRleHQgZmlsbD0iIzAwMDAwMCIgZm9udC1mYW1pbHk9IlZlcmRhbmEiIGZvbnQtc2l6ZT0iMTMiIGxlbmd0aEFkanVzdD0ic3BhY2luZyIgdGV4dExlbmd0aD0iNDgiIHg9Ijg1NCIgeT0iNDA5LjI4OTEiPiYjMTA5MTsmIzEwODk7JiMxMDg3OyYjMTA3NzsmIzEwOTY7JiMxMDg1OyYjMTA4Njs8L3RleHQ+PC9nPjwhLS1saW5rIFVDNSB0byBVQzYtLT48ZyBpZD0ibGlua19VQzVfVUM2Ij48cGF0aCBkPSJNMTIyMC43MSw0MTEgQzEyNjcuNDYsNDExIDEzMTMuNzgsNDExIDEzNTcuODQsNDExICIgZmlsbD0ibm9uZSIgaWQ9IlVDNS10by1VQzYiIHN0eWxlPSJzdHJva2U6IzAwMDAwMDtzdHJva2Utd2lkdGg6MS4wOyIvPjxwb2x5Z29uIGZpbGw9IiMwMDAwMDAiIHBvaW50cz0iMTM2My44NCw0MTEsMTM1NC44NCw0MDcsMTM1OC44NCw0MTEsMTM1NC44NCw0MTUsMTM2My44NCw0MTEiIHN0eWxlPSJzdHJva2U6IzAwMDAwMDtzdHJva2Utd2lkdGg6MS4wOyIvPjx0ZXh0IGZpbGw9IiMwMDAwMDAiIGZvbnQtZmFtaWx5PSJWZXJkYW5hIiBmb250LXNpemU9IjEzIiBsZW5ndGhBZGp1c3Q9InNwYWNpbmciIHRleHRMZW5ndGg9IjQ4IiB4PSIxMjg1IiB5PSI0MDkuMjg5MSI+JiMxMDkxOyYjMTA4OTsmIzEwODc7JiMxMDc3OyYjMTA5NjsmIzEwODU7JiMxMDg2OzwvdGV4dD48L2c+PCEtLWxpbmsgVUMyIHRvIFVDNy0tPjxnIGlkPSJsaW5rX1VDMl9VQzciPjxwYXRoIGQ9Ik0zNzAsNzQuNTMgQzM3MCw4OC4wNSAzNzAsMTAyLjQzIDM3MCwxMTguMTQgIiBmaWxsPSJub25lIiBpZD0iVUMyLXRvLVVDNyIgc3R5bGU9InN0cm9rZTojMDAwMDAwO3N0cm9rZS13aWR0aDoxLjA7c3Ryb2tlLWRhc2hhcnJheTo3LjAsNy4wOyIvPjxwb2x5Z29uIGZpbGw9IiMwMDAwMDAiIHBvaW50cz0iMzcwLDEyNC4xNCwzNzQsMTE1LjE0LDM3MCwxMTkuMTQsMzY2LDExNS4xNCwzNzAsMTI0LjE0IiBzdHlsZT0ic3Ryb2tlOiMwMDAwMDA7c3Ryb2tlLXdpZHRoOjEuMDsiLz48dGV4dCBmaWxsPSIjMDAwMDAwIiBmb250LWZhbWlseT0iVmVyZGFuYSIgZm9udC1zaXplPSIxMyIgbGVuZ3RoQWRqdXN0PSJzcGFjaW5nIiB0ZXh0TGVuZ3RoPSI2MSIgeD0iMzI5IiB5PSIxMDUuMjg5MSI+JiMxMDg4OyYjMTA3MjsmIzEwODk7JiMxMDk2OyYjMTA4MDsmIzEwODg7JiMxMTAzOyYjMTA3NzsmIzEwOTA7PC90ZXh0PjwvZz48IS0tbGluayBVQzIgdG8gVUM4LS0+PGcgaWQ9ImxpbmtfVUMyX1VDOCI+PHBhdGggZD0iTTMxMC42LDYzLjQ2IEMyNzQuMzQsNjguNDIgMjI5LjEzLDgwLjA2IDE5OCwxMDcgQzEyOS44OSwxNjUuOTUgMTQ0Ljc3LDE3MC4zOCAxNjYsMTk1LjUgQzE4OS4wMSwyMjIuNzMgMjE4Ljg3MTYsMjMzLjQxNTQgMjU0LjEyMTYsMjM3LjA0NTQgIiBmaWxsPSJub25lIiBpZD0iVUMyLXRvLVVDOCIgc3R5bGU9InN0cm9rZTojMDAwMDAwO3N0cm9rZS13aWR0aDoxLjA7c3Ryb2tlLWRhc2hhcnJheTo3LjAsNy4wOyIvPjxwb2x5Z29uIGZpbGw9IiMwMDAwMDAiIHBvaW50cz0iMjYwLjA5LDIzNy42NiwyNTEuNTQ3MSwyMzIuNzU5MSwyNTUuMTE2MywyMzcuMTQ3OCwyNTAuNzI3NiwyNDAuNzE3LDI2MC4wOSwyMzcuNjYiIHN0eWxlPSJzdHJva2U6IzAwMDAwMDtzdHJva2Utd2lkdGg6MS4wOyIvPjx0ZXh0IGZpbGw9IiMwMDAwMDAiIGZvbnQtZmFtaWx5PSJWZXJkYW5hIiBmb250LXNpemU9IjEzIiBsZW5ndGhBZGp1c3Q9InNwYWNpbmciIHRleHRMZW5ndGg9IjYxIiB4PSIxMjgiIHk9IjE5My43ODkxIj4mIzEwODg7JiMxMDcyOyYjMTA4OTsmIzEwOTY7JiMxMDgwOyYjMTA4ODsmIzExMDM7JiMxMDc3OyYjMTA5MDs8L3RleHQ+PC9nPjwhLS1saW5rIFVDMiB0byBVQzktLT48ZyBpZD0ibGlua19VQzJfVUM5Ij48cGF0aCBkPSJNMzA5LjUsNjIuMjcgQzI3Mi44Miw2Ni43NyAyMjcuNTUsNzguMzMgMTk4LDEwNyBDMTQ3Ljc2LDE1NS43NCAxNTIuOTgsMTg0LjYxIDE2NiwyMjYuNSBDMTczLjQ1LDI1MC40NiAxNzcuNjYsMjU4LjMxIDE5OCwyNzMgQzIxNS41MiwyODUuNjUgMjMwLjUyOTIsMjkzLjE4OTEgMjUxLjM1OTIsMzAwLjI2OTEgIiBmaWxsPSJub25lIiBpZD0iVUMyLXRvLVVDOSIgc3R5bGU9InN0cm9rZTojMDAwMDAwO3N0cm9rZS13aWR0aDoxLjA7c3Ryb2tlLWRhc2hhcnJheTo3LjAsNy4wOyIvPjxwb2x5Z29uIGZpbGw9IiMwMDAwMDAiIHBvaW50cz0iMjU3LjA0LDMwMi4yLDI0OS44MDYsMjk1LjUxNjUsMjUyLjMwNiwzMDAuNTkwOSwyNDcuMjMxNSwzMDMuMDkwOSwyNTcuMDQsMzAyLjIiIHN0eWxlPSJzdHJva2U6IzAwMDAwMDtzdHJva2Utd2lkdGg6MS4wOyIvPjx0ZXh0IGZpbGw9IiMwMDAwMDAiIGZvbnQtZmFtaWx5PSJWZXJkYW5hIiBmb250LXNpemU9IjEzIiBsZW5ndGhBZGp1c3Q9InNwYWNpbmciIHRleHRMZW5ndGg9IjYxIiB4PSIxMjgiIHk9IjIyNC43ODkxIj4mIzEwODg7JiMxMDcyOyYjMTA4OTsmIzEwOTY7JiMxMDgwOyYjMTA4ODsmIzExMDM7JiMxMDc3OyYjMTA5MDs8L3RleHQ+PC9nPjwhLS1saW5rIFVDNSB0byBVQzEwLS0+PGcgaWQ9ImxpbmtfVUM1X1VDMTAiPjxwYXRoIGQ9Ik0xMDkzLjUsMzgyLjc0IEMxMDkzLjUsMzY3LjgzIDEwOTMuNSwzNTUuNDIgMTA5My41LDMzOS42NiAiIGZpbGw9Im5vbmUiIGlkPSJVQzUtdG8tVUMxMCIgc3R5bGU9InN0cm9rZTojMDAwMDAwO3N0cm9rZS13aWR0aDoxLjA7c3Ryb2tlLWRhc2hhcnJheTo3LjAsNy4wOyIvPjxwb2x5Z29uIGZpbGw9IiMwMDAwMDAiIHBvaW50cz0iMTA5My41LDMzMy42NiwxMDg5LjUsMzQyLjY2LDEwOTMuNSwzMzguNjYsMTA5Ny41LDM0Mi42NiwxMDkzLjUsMzMzLjY2IiBzdHlsZT0ic3Ryb2tlOiMwMDAwMDA7c3Ryb2tlLXdpZHRoOjEuMDsiLz48dGV4dCBmaWxsPSIjMDAwMDAwIiBmb250LWZhbWlseT0iVmVyZGFuYSIgZm9udC1zaXplPSIxMyIgbGVuZ3RoQWRqdXN0PSJzcGFjaW5nIiB0ZXh0TGVuZ3RoPSI2MSIgeD0iMTA1Mi41IiB5PSIzNjQuMDM5MSI+JiMxMDg4OyYjMTA3MjsmIzEwODk7JiMxMDk2OyYjMTA4MDsmIzEwODg7JiMxMTAzOyYjMTA3NzsmIzEwOTA7PC90ZXh0PjwvZz48IS0tU1JDPVtmUEpCSmk5RzQ4UnR2b2I2elhmMUtOM1huWlNteUc0UUYyZTlXZTZ3Q1lRV3lIUUQ2NVRrckZXNnpMQWY4RjBBU3p4OFZxd0J5UDJJQmpvcWRTdXRqX3pDRS1WbHdOckQxcE1sTWJVZ2ZkVHl5WGxLaEV4ay1SSFRSVWdBTnN0S2JMVm42cXRZUG54bm1Ebm0zX1N0M2ltOVhzOGg5UG5OdHdyZnVYVUVKQ1R3bFpjVzhxTHFzRDhMaHdLZm5teXlYRlVTOHlKWVFoZmFzVzNWdW4weXN6U1N2U1hocVRQNnRXYy1IeWFIVm4xX1M4MHlHdERqcFhBbXU4M0ZJMkp6WFJadHFLREFtOThKeTBBeWJyMEhYc0hFcEdNWUpzMkUtOGxXMnRXaUZWdnNqa3A0Rm00VElfU2VRV2pRNjNnOTBnT1pEWGU3NUZWcVlMOVhOOGdfYXVINTktNFR6cTU3TGtENGZ5b01MakI1NmdCOGZCVjg3ZnhMOEtzS0xWVWlhN2xpZGxUNGRXdUZPQnBZdkprRlBCaDBBWnVtdElISm9VdDVOMGppc2VaNDc1VU9HblJhM1MtdE9pTFA4Z1hiTFE3ZmlpY1FKUEFOZFVJRm83T2dtcTJWOFF2VEdnTF83cVQtU01mMU5jTjJFN1B3czR0VHFodXdMY2hNdnE3cHktanNjcEUwR1hRbWIwTWlQVzZiQkEyUzFTSkpPZmg0TmdPcm9rNGFQTGIyU29keGNMRm9FZE9OcXp0NW5Cc0l4WXhHV1h0N1VrTWxxODRsQ2N0SmJNX1czcjdBOUNncFlNOUN2MVRkODN5MF0tLT48L2c+PC9zdmc+;" vertex="1" parent="1">
            <mxGeometry x="-860" y="110" width="1587" height="590" as="geometry" />
          </mxCell>
        </UserObject>
      </root>
    </mxGraphModel>
  </diagram>
</mxfile>
